<?xml version="1.0" encoding="utf-8"?>
<!-- Generator: Adobe Illustrator 16.0.4, SVG Export Plug-In . SVG Version: 6.00 Build 0)  -->
<!DOCTYPE svg PUBLIC "-//W3C//DTD SVG 1.1//EN" "http://www.w3.org/Graphics/SVG/1.1/DTD/svg11.dtd">
<svg version="1.1" id="Layer_1" xmlns="http://www.w3.org/2000/svg" xmlns:xlink="http://www.w3.org/1999/xlink" x="0px" y="0px"
	 width="310px" height="310px" viewBox="0 0 310 310" enable-background="new 0 0 310 310" xml:space="preserve">
<linearGradient id="SVGID_1_" gradientUnits="userSpaceOnUse" x1="3.5" y1="309.5317" x2="3.5" y2="109.0635">
	<stop  offset="0" style="stop-color:#FFFFFF;stop-opacity:0.9"/>
	<stop  offset="1" style="stop-color:#FFFFFF"/>
</linearGradient>
<rect x="2.5" y="109.063" fill="url(#SVGID_1_)" width="2" height="200.469"/>
<linearGradient id="SVGID_2_" gradientUnits="userSpaceOnUse" x1="106.9844" y1="3.5005" x2="307.4531" y2="3.5005">
	<stop  offset="0" style="stop-color:#FFFFFF;stop-opacity:0"/>
	<stop  offset="1" style="stop-color:#FFFFFF;stop-opacity:0.5"/>
</linearGradient>
<rect x="106.984" y="2.5" fill="url(#SVGID_2_)" width="200.469" height="2"/>
<linearGradient id="SVGID_3_" gradientUnits="userSpaceOnUse" x1="4.5" y1="308.5317" x2="307.5" y2="308.5317">
	<stop  offset="0" style="stop-color:#FFFFFF;stop-opacity:0.9"/>
	<stop  offset="1" style="stop-color:#FFFFFF;stop-opacity:0.75"/>
</linearGradient>
<rect x="4.5" y="307.532" fill="url(#SVGID_3_)" width="303" height="2"/>
<linearGradient id="SVGID_4_" gradientUnits="userSpaceOnUse" x1="308.4531" y1="309.5317" x2="308.4531" y2="2.501">
	<stop  offset="0" style="stop-color:#FFFFFF;stop-opacity:0.75"/>
	<stop  offset="1" style="stop-color:#FFFFFF;stop-opacity:0.5"/>
</linearGradient>
<rect x="307.453" y="2.5" fill="url(#SVGID_4_)" width="2" height="307.031"/>
<circle fill="#FFFFFF" cx="3.5" cy="107.563" r="3"/>
<g>
	<path fill="#FFFFFF" d="M102.922,186.563h-3.621V138.54H82.602v-3.375h37.02v3.375h-16.699V186.563z"/>
	<path fill="#FFFFFF" d="M148.695,167.403c0,6.234-1.512,11.104-4.535,14.607c-3.023,3.504-7.195,5.256-12.516,5.256
		c-3.352,0-6.305-0.809-8.859-2.426c-2.555-1.617-4.512-3.938-5.871-6.961c-1.359-3.023-2.039-6.516-2.039-10.477
		c0-6.234,1.512-11.092,4.535-14.572s7.172-5.221,12.445-5.221c5.25,0,9.369,1.764,12.357,5.291
		C147.201,156.428,148.695,161.262,148.695,167.403z M118.532,167.403c0,5.25,1.154,9.346,3.463,12.287
		c2.308,2.941,5.572,4.412,9.791,4.412s7.482-1.471,9.791-4.412c2.308-2.941,3.463-7.037,3.463-12.287
		c0-5.273-1.166-9.363-3.498-12.27c-2.333-2.906-5.607-4.359-9.826-4.359s-7.471,1.447-9.756,4.342S118.532,162.106,118.532,167.403
		z"/>
	<path fill="#FFFFFF" d="M170.08,147.61c2.766,0,5.156,0.504,7.172,1.512c2.016,1.008,3.82,2.73,5.414,5.168h0.211
		c-0.141-2.953-0.211-5.848-0.211-8.684V131.86h3.445v54.703h-2.285l-0.879-5.836h-0.281c-2.906,4.359-7.078,6.539-12.516,6.539
		c-5.273,0-9.305-1.641-12.094-4.922s-4.184-8.062-4.184-14.344c0-6.609,1.383-11.66,4.148-15.152S164.807,147.61,170.08,147.61z
		 M170.08,150.774c-4.172,0-7.307,1.465-9.404,4.395s-3.146,7.184-3.146,12.762c0,10.828,4.207,16.242,12.621,16.242
		c4.312,0,7.477-1.254,9.492-3.762s3.023-6.645,3.023-12.41v-0.598c0-5.906-0.99-10.154-2.971-12.744
		C177.715,152.069,174.51,150.774,170.08,150.774z"/>
	<path fill="#FFFFFF" d="M226.812,167.403c0,6.234-1.512,11.104-4.535,14.607s-7.195,5.256-12.516,5.256
		c-3.352,0-6.305-0.809-8.859-2.426s-4.512-3.938-5.871-6.961s-2.039-6.516-2.039-10.477c0-6.234,1.512-11.092,4.535-14.572
		s7.172-5.221,12.445-5.221c5.25,0,9.369,1.764,12.357,5.291S226.812,161.262,226.812,167.403z M196.648,167.403
		c0,5.25,1.154,9.346,3.463,12.287s5.572,4.412,9.791,4.412s7.482-1.471,9.791-4.412s3.463-7.037,3.463-12.287
		c0-5.273-1.166-9.363-3.498-12.27c-2.332-2.906-5.607-4.359-9.826-4.359s-7.471,1.447-9.756,4.342S196.648,162.106,196.648,167.403
		z"/>
	<path fill="#FFFFFF" d="M231.903,183.821c0-2.297,0.938-3.445,2.812-3.445c1.922,0,2.883,1.148,2.883,3.445
		s-0.961,3.445-2.883,3.445C232.841,187.266,231.903,186.118,231.903,183.821z"/>
</g>
</svg>
