<?xml version="1.0" encoding="utf-8"?>
<!-- Generator: Adobe Illustrator 16.0.4, SVG Export Plug-In . SVG Version: 6.00 Build 0)  -->
<!DOCTYPE svg PUBLIC "-//W3C//DTD SVG 1.1//EN" "http://www.w3.org/Graphics/SVG/1.1/DTD/svg11.dtd">
<svg version="1.1" id="Layer_1" xmlns="http://www.w3.org/2000/svg" xmlns:xlink="http://www.w3.org/1999/xlink" x="0px" y="0px"
	 width="353px" height="164.509px" viewBox="0 0 353 164.509" enable-background="new 0 0 353 164.509" xml:space="preserve">
<g>
	<path fill="#FFFFFF" d="M102.07,82.221l0.788,0.788v1.911c-0.562,0-0.9,0.226-1.125,0.787c-1.236,0.675-2.925,1.575-5.062,2.812
		c-1.687,0.337-3.823,0.787-6.3,1.462c-2.811,0.787-4.161,1.124-4.273,1.124l-50.502,8.887c0,0.112,0.113,0.226,0.225,0.45
		c0.9-0.112,1.463,0.112,2.026,0.45h-5.175l-1.799,0.898c0-0.111-0.113-0.225-0.225-0.337c-0.113-0.112-0.338,0-0.451,0.337
		l-18.56,3.375c-2.474-0.45-3.71-0.675-3.823-0.788c-1.461-0.336-2.361-0.898-2.812-1.799H2.979c0,0-2.362-2.925-2.362-4.837
		c-0.336-0.787-0.45-2.023-0.45-3.823l3.599-28.906v-3.375L6.354,40.83c0,0,0.562-7.875,0.45-8.437
		c0.225-3.824,0.787-8.886,1.574-15.186c0.113-1.012,0.563-4.16,1.462-9.334c1.013-1.237,2.587-3.037,4.725-5.398
		c1.912-0.562,2.811-0.9,2.587-0.9c0.9,0,1.799,0.338,2.586,1.012c1.238,1.012,2.025,1.688,2.363,1.8
		c0.112,0.562,0.45,1.125,1.012,1.8c0.562,1.799,0.899,3.037,0.899,3.599c0.788,0.9,1.462,1.35,2.024,1.688L24.35,32.169v5.062
		l-4.275,46.003c0,0,5.625-0.225,7.761-0.338l54.776-7.985l12.261,0.112c1.687,0.225,5.694-0.896,7.197,2.137
		c-0.073-0.148-0.224,0-0.562,0.787c0.338,0.338,0.787,0.562,1.35,0.449c0,0.113,0.225,0.9,0.562,2.138
		C103.083,80.871,102.634,81.434,102.07,82.221z"/>
	<path fill="#FFFFFF" d="M174.354,83.794c-0.112,0.338-0.337,1.126-0.674,2.251c-1.351,1.687-3.375,4.05-5.962,7.087
		c-4.05,2.587-7.873,5.061-11.473,7.311c-8.323,2.812-14.622,4.273-19.008,4.273h-3.713c-0.337,0-0.787-0.112-1.35-0.449
		c-0.787,0.111-3.824-0.676-8.998-2.138c-2.025-1.236-4.948-3.375-8.548-6.523c-0.562-1.013-1.463-2.587-2.699-4.724
		c-1.237-4.388-1.8-7.762-1.8-10.124l0.562-5.174v-8.098c0-0.112,0.337-1.351,1.013-3.6c0.787-2.361,1.236-3.937,1.35-4.611
		c0.787-1.912,3.599-4.499,8.435-7.648c0.788-0.226,2.138-0.562,3.938-1.012c0.449-0.338,2.137-0.787,2.475-0.787
		c0,0,1.012-0.338,3.149-1.013c2.137-0.676,3.937-1.013,5.511-1.013h10.573c1.236,0,2.474,0.226,4.048,0.787
		c2.476-0.112,7.536,2.25,15.298,7.198v1.125c1.237,1.125,2.924,2.25,4.949,3.487c0.787,0.787,2.361,3.824,4.724,8.998
		c0.449,2.587,0.676,5.062,0.676,7.311C176.83,79.521,176.043,81.883,174.354,83.794z M164.231,71.648
		c-3.036-4.837-5.736-7.199-8.21-7.199c-0.113,0-0.675,0.338-0.787,0.338h-0.676c-0.787-1.237-2.699-1.8-5.849-1.688l-6.073,0.226
		l-13.498,2.587l-0.675,0.899v2.025c0,0.336,0,2.249-0.562,2.812c0.338,0.787,0.562,1.237,0.562,1.349
		c-0.674,0.562-1.236,0.9-1.688,1.125c0,0.113-0.562,1.013-1.574,2.7c-1.013,1.8-1.463,3.936-1.237,4.723
		c1.125,1.351,2.925,2.476,5.624,3.601c2.587,1.011,4.724,1.574,6.638,1.574c4.273-0.787,6.86-1.237,7.647-1.237l8.886-3.487
		c4.386-1.8,7.311-3.373,8.772-4.724c1.799-1.574,2.699-3.036,2.699-4.161V71.648z"/>
	<path fill="#FFFFFF" d="M245.025,85.933c0.113,1.124,0.113,2.587,0,4.274c-0.675,1.236-1.912,2.249-3.599,3.149
		c-2.588,1.35-4.162,2.249-4.499,2.587c0,0.674-0.45,1.349-1.351,1.799c-2.36,1.237-5.96,2.25-10.909,3.15
		c-2.025,1.236-3.937,1.799-5.624,1.799c-0.562,0-3.487,0.899-5.175,1.013c-1.237,0.112-2.474,0.225-3.711,0.449l-6.411-0.898
		c-0.112,0-1.575,0.336-1.687,0.336l-5.175-0.899c-0.899,0-2.137-0.45-3.937-1.125c-2.024-0.899-3.262-1.349-3.599-1.462
		c-3.937-4.386-5.962-8.437-5.962-12.147c0-1.688,0.562-4.274,1.688-7.535c1.125-3.375,2.137-5.287,2.925-5.962
		c5.96-6.186,15.296-12.035,28.118-17.771c0.901-0.338,2.362-1.125,4.499-2.024c0.225,0,2.138-0.562,5.962-1.8
		c2.812-0.899,5.174-1.35,7.086-1.35c0.113,0,0.45,0,1.238,0.112c0.785,0.112,1.235,0.112,1.573,0.112
		c0.562,0,1.012-0.112,1.462-0.225l2.587,7.423c-0.562,1.238-1.462,2.362-2.475,3.487c0.113,0.675-5.398,3.374-15.521,7.986
		c-0.338,0.226-1.125,0.899-2.362,2.137c-2.249,0.787-5.624,1.912-10.011,3.712c-3.262,1.35-5.736,3.711-7.312,6.86
		c0.113,0.113,0.225,0.338,0.225,0.562c2.138,1.463,5.287,2.138,9.223,2.138l25.421-2.812l6.748,1.687L245.025,85.933z"/>
	<path fill="#FFFFFF" d="M315.659,96.729c0,0-4.05,0.45-5.062-0.225c-1.012,0.225-3.037-1.013-6.299-3.599
		c-0.675-1.351-2.362-3.938-4.949-7.536l-14.509,10.909c0,0.113,0.112,0.226,0.225,0.45c0.224,0.226,0.337,0.338,0.337,0.45
		c-0.337,0.562-1.012,1.125-2.137,1.687c-0.9,0.45-1.687,0.9-2.7,1.352c-8.21,2.474-12.259,3.824-12.034,3.824
		c-5.624,0-10.123-2.251-13.497-6.637c-1.574-4.273-2.362-7.424-2.362-9.336c0-1.237,1.462-5.287,4.388-11.923
		c2.586-2.812,4.386-4.161,5.622-4.273c0.338-0.338,3.037-2.362,8.099-5.737c2.362-1.011,6.074-2.586,11.36-4.836
		c5.623-1.35,8.21-2.024,7.761-2.024c0.338,0,5.736,0.449,6.299,0.338c2.25,1.012,3.263,2.024,3.263,3.262
		c0,0.112,1.236,1.8,1.687,2.812c0.562,1.237,0.9,1.912,1.012,2.25c0.338-0.113,0.676-0.113,1.013-0.113
		c1.688,0,3.262,0.676,4.725,2.025c2.361,3.711,4.499,7.198,6.411,10.573c2.587,4.386,4.386,8.21,5.398,11.359
		C318.695,93.019,317.347,94.593,315.659,96.729z M289.79,75.022c-1.126,0-3.375,0.787-6.862,2.137
		c-2.024,0.787-4.05,1.574-6.187,2.475c-2.248,1.349-4.723,3.262-7.422,5.849l-0.226,0.674l3.149,0.338
		c7.535-1.911,13.496-5.061,17.884-9.447c0.224-0.225,1.124-0.9,2.586-2.024H289.79z"/>
	<path fill="#FFFFFF" d="M353,18.446l-9.897,87.058c-1.238,0-2.475,0.225-3.938,0.899c-0.449,0-1.912-0.45-1.912-0.45
		c-0.449,0.112-0.899,0.112-1.35,0.112c-0.112-0.112-3.599-2.023-4.16-1.35c-0.226-0.674-0.563-1.574-1.126-2.587
		c-0.675-4.949-1.013-7.985-1.013-9.11l4.611-39.704c1.575-13.047,3.037-26.77,4.5-41.392c0.338-1.351,0.9-3.486,1.687-6.298
		c0.676-2.588,1.688-4.5,2.812-5.625l2.361,0.227c1.014,1.012,2.025,1.687,2.925,2.023c0.226,0.45,1.126,1.687,2.7,3.711
		c1.237,3.487,1.799,5.624,1.799,6.524V18.446z"/>
</g>
<g>
	<path fill="#FFFFFF" d="M101.31,155.348c0.192,0.426,0.376,0.863,0.553,1.312c0.178-0.459,0.365-0.902,0.562-1.335
		s0.4-0.853,0.608-1.258l5.838-11.498c0.104-0.198,0.21-0.354,0.319-0.462c0.109-0.11,0.232-0.188,0.365-0.242
		c0.137-0.051,0.29-0.078,0.462-0.078c0.171,0,0.372,0,0.601,0h4.025v22.723h-4.65V151.43c0-0.633,0.031-1.319,0.094-2.059
		l-6.023,11.688c-0.186,0.366-0.439,0.641-0.756,0.828c-0.318,0.188-0.679,0.279-1.086,0.279h-0.718
		c-0.405,0-0.767-0.092-1.083-0.279c-0.318-0.188-0.57-0.462-0.758-0.828l-6.055-11.704c0.041,0.365,0.071,0.727,0.093,1.085
		c0.021,0.356,0.03,0.689,0.03,0.989v13.079h-4.648v-22.723h4.025c0.229,0,0.429,0,0.601,0c0.171,0,0.325,0.027,0.46,0.078
		c0.136,0.054,0.258,0.132,0.367,0.242c0.109,0.108,0.216,0.264,0.32,0.462l5.852,11.544
		C100.917,154.509,101.117,154.92,101.31,155.348z"/>
	<path fill="#FFFFFF" d="M148.633,164.509h-4.089c-0.459,0-0.835-0.107-1.131-0.32c-0.297-0.213-0.503-0.484-0.618-0.82l-1.34-3.962
		h-8.646l-1.343,3.962c-0.104,0.293-0.308,0.557-0.608,0.79c-0.303,0.233-0.672,0.351-1.107,0.351h-4.121l8.802-22.738h5.399
		L148.633,164.509z M134.026,155.816h6.21l-2.089-6.229c-0.137-0.393-0.296-0.859-0.477-1.397c-0.185-0.532-0.363-1.113-0.539-1.739
		c-0.166,0.635-0.337,1.227-0.516,1.766c-0.178,0.541-0.344,1.009-0.5,1.406L134.026,155.816z"/>
	<path fill="#FFFFFF" d="M164.863,156.097v8.412h-5.273v-22.738h7.396c1.644,0,3.046,0.17,4.207,0.509
		c1.158,0.338,2.106,0.808,2.84,1.411c0.733,0.604,1.267,1.315,1.601,2.141c0.331,0.819,0.498,1.712,0.498,2.681
		c0,0.739-0.099,1.438-0.296,2.093c-0.199,0.655-0.493,1.261-0.884,1.815c-0.389,0.56-0.868,1.055-1.435,1.492
		c-0.567,0.437-1.221,0.798-1.959,1.077c0.354,0.177,0.684,0.396,0.992,0.655c0.305,0.262,0.573,0.579,0.804,0.952l4.837,7.912
		h-4.775c-0.886,0-1.519-0.333-1.903-0.999l-3.778-6.602c-0.165-0.291-0.36-0.5-0.585-0.624c-0.223-0.124-0.536-0.188-0.943-0.188
		H164.863z M164.863,152.461h2.122c0.718,0,1.33-0.092,1.835-0.273c0.504-0.18,0.917-0.435,1.241-0.758
		c0.322-0.322,0.555-0.698,0.7-1.13c0.146-0.431,0.218-0.896,0.218-1.397c0-0.998-0.323-1.776-0.973-2.341
		c-0.652-0.562-1.66-0.841-3.021-0.841h-2.122V152.461z"/>
	<path fill="#FFFFFF" d="M194.562,150.978h0.842c0.781,0,1.344-0.243,1.687-0.734l5.118-7.426c0.281-0.406,0.601-0.68,0.96-0.829
		c0.358-0.144,0.798-0.218,1.317-0.218h4.59l-6.742,9.192c-0.24,0.333-0.49,0.609-0.748,0.828c-0.26,0.219-0.527,0.399-0.796,0.546
		c0.395,0.145,0.754,0.346,1.083,0.6c0.328,0.257,0.627,0.596,0.896,1.024l6.867,10.548h-4.714c-0.301,0-0.559-0.021-0.772-0.062
		c-0.213-0.042-0.396-0.103-0.553-0.187c-0.155-0.084-0.292-0.186-0.407-0.305c-0.112-0.119-0.222-0.257-0.326-0.415l-5.149-7.911
		c-0.187-0.292-0.426-0.496-0.71-0.617c-0.287-0.12-0.676-0.179-1.163-0.179h-1.279v9.676h-5.276v-22.738h5.276V150.978z"/>
	<path fill="#FFFFFF" d="M235.261,141.771v4.061h-9.333v5.304h7.148v3.902h-7.148v5.415h9.333v4.057h-14.637v-22.738H235.261z"/>
	<path fill="#FFFFFF" d="M264.083,141.771v4.184h-6.397v18.555h-5.275v-18.555h-6.396v-4.184H264.083z"/>
</g>
</svg>
