<?xml version="1.0" encoding="utf-8"?>
<!-- Generator: Adobe Illustrator 16.0.4, SVG Export Plug-In . SVG Version: 6.00 Build 0)  -->
<!DOCTYPE svg PUBLIC "-//W3C//DTD SVG 1.1//EN" "http://www.w3.org/Graphics/SVG/1.1/DTD/svg11.dtd">
<svg version="1.1" id="Layer_1" xmlns="http://www.w3.org/2000/svg" xmlns:xlink="http://www.w3.org/1999/xlink" x="0px" y="0px"
	 width="585.262px" height="106.403px" viewBox="0 0 585.262 106.403" enable-background="new 0 0 585.262 106.403"
	 xml:space="preserve">
<g>
	<path fill="#FFFFFF" d="M334.332,82.221l0.788,0.788v1.911c-0.562,0-0.9,0.226-1.125,0.787c-1.236,0.675-2.925,1.575-5.062,2.812
		c-1.687,0.337-3.823,0.787-6.3,1.462c-2.811,0.787-4.161,1.124-4.273,1.124l-50.502,8.887c0,0.112,0.113,0.226,0.225,0.45
		c0.9-0.112,1.463,0.112,2.026,0.45h-5.175l-1.799,0.898c0-0.111-0.113-0.225-0.225-0.337c-0.113-0.112-0.338,0-0.451,0.337
		l-18.56,3.375c-2.474-0.45-3.71-0.675-3.823-0.788c-1.461-0.336-2.361-0.898-2.812-1.799h-2.024c0,0-2.362-2.925-2.362-4.837
		c-0.336-0.787-0.45-2.023-0.45-3.823l3.599-28.906v-3.375l2.588-20.808c0,0,0.562-7.875,0.45-8.437
		c0.225-3.824,0.787-8.886,1.574-15.186c0.113-1.012,0.563-4.16,1.462-9.334c1.013-1.237,2.587-3.037,4.725-5.398
		c1.912-0.562,2.811-0.9,2.587-0.9c0.9,0,1.799,0.338,2.586,1.012c1.238,1.012,2.025,1.688,2.363,1.8
		c0.112,0.562,0.45,1.125,1.012,1.8c0.562,1.799,0.899,3.037,0.899,3.599c0.788,0.9,1.462,1.35,2.024,1.688l-1.687,20.696v5.062
		l-4.275,46.003c0,0,5.625-0.225,7.761-0.338l54.776-7.985l12.261,0.112c1.687,0.225,5.694-0.896,7.197,2.137
		c-0.073-0.148-0.224,0-0.562,0.787c0.338,0.338,0.787,0.562,1.35,0.449c0,0.113,0.225,0.9,0.562,2.138
		C335.345,80.871,334.896,81.434,334.332,82.221z"/>
	<path fill="#FFFFFF" d="M406.616,83.794c-0.112,0.338-0.337,1.126-0.674,2.251c-1.351,1.687-3.375,4.05-5.962,7.087
		c-4.05,2.587-7.873,5.061-11.473,7.311c-8.323,2.812-14.622,4.273-19.008,4.273h-3.713c-0.337,0-0.787-0.112-1.35-0.449
		c-0.787,0.111-3.824-0.676-8.998-2.138c-2.025-1.236-4.948-3.375-8.548-6.523c-0.562-1.013-1.463-2.587-2.699-4.724
		c-1.237-4.388-1.8-7.762-1.8-10.124l0.562-5.174v-8.098c0-0.112,0.337-1.351,1.013-3.6c0.787-2.361,1.236-3.937,1.35-4.611
		c0.787-1.912,3.599-4.499,8.435-7.648c0.788-0.226,2.138-0.562,3.938-1.012c0.449-0.338,2.137-0.787,2.475-0.787
		c0,0,1.012-0.338,3.149-1.013c2.137-0.676,3.937-1.013,5.511-1.013h10.573c1.236,0,2.474,0.226,4.048,0.787
		c2.476-0.112,7.536,2.25,15.298,7.198v1.125c1.237,1.125,2.924,2.25,4.949,3.487c0.787,0.787,2.361,3.824,4.724,8.998
		c0.449,2.587,0.676,5.062,0.676,7.311C409.092,79.521,408.305,81.883,406.616,83.794z M396.493,71.648
		c-3.036-4.837-5.736-7.199-8.21-7.199c-0.113,0-0.675,0.338-0.787,0.338h-0.676c-0.787-1.237-2.699-1.8-5.849-1.688l-6.073,0.226
		L361.4,65.912l-0.675,0.899v2.025c0,0.336,0,2.249-0.562,2.812c0.338,0.787,0.562,1.237,0.562,1.349
		c-0.674,0.562-1.236,0.9-1.688,1.125c0,0.113-0.562,1.013-1.574,2.7c-1.013,1.8-1.463,3.936-1.237,4.723
		c1.125,1.351,2.925,2.476,5.624,3.601c2.587,1.011,4.724,1.574,6.638,1.574c4.273-0.787,6.86-1.237,7.647-1.237l8.886-3.487
		c4.386-1.8,7.311-3.373,8.772-4.724c1.799-1.574,2.699-3.036,2.699-4.161V71.648z"/>
	<path fill="#FFFFFF" d="M477.287,85.933c0.113,1.124,0.113,2.587,0,4.274c-0.675,1.236-1.912,2.249-3.599,3.149
		c-2.588,1.35-4.162,2.249-4.499,2.587c0,0.674-0.45,1.349-1.351,1.799c-2.36,1.237-5.96,2.25-10.909,3.15
		c-2.025,1.236-3.937,1.799-5.624,1.799c-0.562,0-3.487,0.899-5.175,1.013c-1.237,0.112-2.474,0.225-3.711,0.449l-6.411-0.898
		c-0.112,0-1.575,0.336-1.687,0.336l-5.175-0.899c-0.899,0-2.137-0.45-3.937-1.125c-2.024-0.899-3.262-1.349-3.599-1.462
		c-3.937-4.386-5.962-8.437-5.962-12.147c0-1.688,0.562-4.274,1.688-7.535c1.125-3.375,2.137-5.287,2.925-5.962
		c5.96-6.186,15.296-12.035,28.118-17.771c0.901-0.338,2.362-1.125,4.499-2.024c0.225,0,2.138-0.562,5.962-1.8
		c2.812-0.899,5.174-1.35,7.086-1.35c0.113,0,0.45,0,1.238,0.112c0.785,0.112,1.235,0.112,1.573,0.112
		c0.562,0,1.012-0.112,1.462-0.225l2.587,7.423c-0.562,1.238-1.462,2.362-2.475,3.487c0.113,0.675-5.398,3.374-15.521,7.986
		c-0.338,0.226-1.125,0.899-2.362,2.137c-2.249,0.787-5.624,1.912-10.011,3.712c-3.262,1.35-5.736,3.711-7.312,6.86
		c0.113,0.113,0.225,0.338,0.225,0.562c2.138,1.463,5.287,2.138,9.223,2.138l25.421-2.812l6.748,1.687L477.287,85.933z"/>
	<path fill="#FFFFFF" d="M547.921,96.729c0,0-4.05,0.45-5.062-0.225c-1.012,0.225-3.037-1.013-6.299-3.599
		c-0.675-1.351-2.362-3.938-4.949-7.536l-14.509,10.909c0,0.113,0.112,0.226,0.225,0.45c0.224,0.226,0.337,0.338,0.337,0.45
		c-0.337,0.562-1.012,1.125-2.137,1.687c-0.9,0.45-1.687,0.9-2.7,1.352c-8.21,2.474-12.259,3.824-12.034,3.824
		c-5.624,0-10.123-2.251-13.497-6.637c-1.574-4.273-2.362-7.424-2.362-9.336c0-1.237,1.462-5.287,4.388-11.923
		c2.586-2.812,4.386-4.161,5.622-4.273c0.338-0.338,3.037-2.362,8.099-5.737c2.362-1.011,6.074-2.586,11.36-4.836
		c5.623-1.35,8.21-2.024,7.761-2.024c0.338,0,5.736,0.449,6.299,0.338c2.25,1.012,3.263,2.024,3.263,3.262
		c0,0.112,1.236,1.8,1.687,2.812c0.562,1.237,0.9,1.912,1.012,2.25c0.338-0.113,0.676-0.113,1.013-0.113
		c1.688,0,3.262,0.676,4.725,2.025c2.361,3.711,4.499,7.198,6.411,10.573c2.587,4.386,4.386,8.21,5.398,11.359
		C550.957,93.019,549.608,94.593,547.921,96.729z M522.052,75.022c-1.126,0-3.375,0.787-6.862,2.137
		c-2.024,0.787-4.05,1.574-6.187,2.475c-2.248,1.349-4.723,3.262-7.422,5.849l-0.226,0.674l3.149,0.338
		c7.535-1.911,13.496-5.061,17.884-9.447c0.224-0.225,1.124-0.9,2.586-2.024H522.052z"/>
	<path fill="#FFFFFF" d="M585.262,18.446l-9.897,87.058c-1.238,0-2.475,0.225-3.938,0.899c-0.449,0-1.912-0.45-1.912-0.45
		c-0.449,0.112-0.899,0.112-1.35,0.112c-0.112-0.112-3.599-2.023-4.16-1.35c-0.226-0.674-0.563-1.574-1.126-2.587
		c-0.675-4.949-1.013-7.985-1.013-9.11l4.611-39.704c1.575-13.047,3.037-26.77,4.5-41.392c0.338-1.351,0.9-3.486,1.687-6.298
		c0.676-2.588,1.688-4.5,2.812-5.625l2.361,0.227c1.014,1.012,2.025,1.687,2.925,2.023c0.226,0.45,1.126,1.687,2.7,3.711
		c1.237,3.487,1.799,5.624,1.799,6.524V18.446z"/>
</g>
<g>
	<path fill="#FFFFFF" d="M47.284,44.509l0.223,0.226c13.382-0.336,26.876-1.116,40.37-1.116c7.472,0,14.386,3.234,20.408,7.248
		c0.558,0.446,2.788,1.896,3.123,2.23c2.23,2.678,4.125,5.912,6.133,8.7c0.111,0.445,0.111,0.892,0.111,1.336
		c0,0.894,0,1.785-0.111,2.678c-0.558,0.668-1.115,1.338-1.226,2.23l-1.004,0.445l-0.335,0.893l-0.78,1.561
		c-1.45,2.788-4.127,4.796-6.691,6.356c-0.224-0.558-2.119,1.339-2.008,1.675l-4.125,4.013l-9.926,5.91
		c-0.335-0.11-0.78-0.222-1.003-0.222c-1.339,0-2.596,2.707-3.68,2.229c1.5,0.661-26.095,12.937-38.14,13.16l-0.223,0.781
		c-1.227,0.333-2.454,0.779-3.68,1.339c-1.561-0.226-5.799,0.11-5.799,0.11l-1.562,0.111h-2.453
		c-1.116-1.117-2.789-0.892-4.238-1.672l-15.501-7.362l-0.446,0.225l-0.334-0.446c-3.458-2.008-5.688-5.576-8.029-8.698
		C2.119,82.539,0,75.402,0,68.151c0-15.61,6.133-29.218,16.728-40.591C27.88,15.627,40.592,9.16,55.983,4.364
		C61.447,2.691,66.8,0.348,72.599,0.348c3.458,0,13.494,4.238,12.044,8.812c0.781,1.113,1.784,2.676,1.896,4.126l-1.004,2.118
		l0.447,0.667c-0.223,1.897-1.785,3.347-2.008,5.243c-0.446,0.669-1.115,1.114-1.896,1.114c-0.335,0-2.008,0.336-2.453,0.894
		c-3.012-0.78-6.692-0.894-9.815-0.894c-0.669,0-5.24,1.785-5.91,2.23c0,0-2.342-0.223-2.454,0.446
		c-1.895,0.223-3.458,1.228-5.129,1.897l-15.613,6.8c-0.447,0.112-6.021,4.907-7.695,6.693c0,0-1.45,0.67-1.784,1.339
		c-1.896,1.225-4.349,4.794-5.129,6.912l-1.45,0.447c-2.677,6.69-6.581,13.27-6.581,20.631c0,12.714,13.494,14.944,23.531,14.944
		c6.58,0,12.824-2.788,19.405-3.014c8.474-3.454,26.652-9.479,32.228-16.168c-0.78-0.336-1.45-0.78-2.007-1.449l-0.446-0.893
		c-1.003,0.111-5.799-0.335-6.802-0.668c-1.561,0.222-5.799-0.114-6.357-0.447c-1.226,1.448-3.903,0.78-5.575,0.78l-3.569,1.004
		c-1.896,0-3.681-0.669-5.576-0.669c-1.338,0-2.677,0.333-4.014,0.445c-0.447,0.558-3.234,1.227-3.903,0.891
		c-1.339,0.226-3.234,1.006-4.461,1.006c-1.337,0-2.899-0.223-3.903-1.116v-1.45c-0.669-0.443-1.115-1.003-1.561-1.672l-1.45-1.561
		l-0.445-1.449l0.445-1.117l-1.338-1.338c0.445-1.562,0.445-3.233,0.445-4.794c0.335-0.558,1.115-1.896,1.115-2.454
		c0-0.447-0.333-1.003-0.668-1.339c0.668-0.445,1.115-1.114,1.449-1.783L47.284,44.509z"/>
</g>
<path fill="#FFFFFF" d="M188.366,83.794c-0.112,0.338-0.337,1.126-0.674,2.251c-1.351,1.687-3.375,4.05-5.962,7.087
	c-4.05,2.587-7.873,5.061-11.473,7.311c-8.323,2.812-14.622,4.273-19.008,4.273h-3.713c-0.337,0-0.787-0.112-1.35-0.449
	c-0.787,0.111-3.824-0.676-8.998-2.138c-2.025-1.236-4.948-3.375-8.548-6.523c-0.562-1.013-1.463-2.587-2.699-4.724
	c-1.237-4.388-1.8-7.762-1.8-10.124l0.562-5.174v-8.098c0-0.112,0.337-1.351,1.013-3.6c0.787-2.361,1.236-3.937,1.35-4.611
	c0.787-1.912,3.599-4.499,8.435-7.648c0.788-0.226,2.138-0.562,3.938-1.012c0.449-0.338,2.137-0.787,2.475-0.787
	c0,0,1.012-0.338,3.149-1.013c2.137-0.676,3.937-1.013,5.511-1.013h10.573c1.236,0,2.474,0.226,4.048,0.787
	c2.476-0.112,7.536,2.25,15.298,7.198v1.125c1.237,1.125,2.924,2.25,4.949,3.487c0.787,0.787,2.361,3.824,4.724,8.998
	c0.449,2.587,0.676,5.062,0.676,7.311C190.842,79.521,190.055,81.883,188.366,83.794z M178.243,71.648
	c-3.036-4.837-5.736-7.199-8.21-7.199c-0.113,0-0.675,0.338-0.787,0.338h-0.676c-0.787-1.237-2.699-1.8-5.849-1.688l-6.073,0.226
	l-13.498,2.587l-0.675,0.899v2.025c0,0.336,0,2.249-0.562,2.812c0.338,0.787,0.562,1.237,0.562,1.349
	c-0.674,0.562-1.236,0.9-1.688,1.125c0,0.113-0.562,1.013-1.574,2.7c-1.013,1.8-1.463,3.936-1.237,4.723
	c1.125,1.351,2.925,2.476,5.624,3.601c2.587,1.011,4.724,1.574,6.638,1.574c4.273-0.787,6.86-1.237,7.647-1.237l8.886-3.487
	c4.386-1.8,7.311-3.373,8.772-4.724c1.799-1.574,2.699-3.036,2.699-4.161V71.648z"/>
</svg>
