<?xml version="1.0" encoding="utf-8"?>
<!-- Generator: Adobe Illustrator 16.0.4, SVG Export Plug-In . SVG Version: 6.00 Build 0)  -->
<!DOCTYPE svg PUBLIC "-//W3C//DTD SVG 1.1//EN" "http://www.w3.org/Graphics/SVG/1.1/DTD/svg11.dtd">
<svg version="1.1" id="Layer_1" xmlns="http://www.w3.org/2000/svg" xmlns:xlink="http://www.w3.org/1999/xlink" x="0px" y="0px"
	 width="280px" height="280px" viewBox="60 60 280 280" enable-background="new 60 60 280 280" xml:space="preserve">
<g>
	<path fill="#DE4F4F" d="M274.758,289.157L62.592,63.704l225.45,212.166c3.783,3.557,3.964,9.507,0.405,13.287
		c-3.557,3.78-9.506,3.963-13.287,0.403C275.027,289.438,274.88,289.289,274.758,289.157 M243.574,305.061L83.596,131.793
		L256.861,291.77c3.815,3.523,4.053,9.474,0.531,13.291c-3.523,3.813-9.471,4.05-13.289,0.527
		C243.924,305.424,243.738,305.234,243.574,305.061 M211.156,305.525L104.84,190.35l115.176,106.316
		c2.543,2.35,2.699,6.314,0.354,8.859c-2.35,2.541-6.314,2.703-8.86,0.354c-0.12-0.109-0.243-0.236-0.354-0.355 M300.234,225.809
		L189.238,105.954L309.093,216.95c2.54,2.354,2.69,6.317,0.341,8.858c-2.354,2.539-6.318,2.691-8.86,0.34
		c-0.112-0.107-0.233-0.227-0.341-0.34 M290.658,259.364L129.984,85.404l173.959,160.673c3.816,3.522,4.055,9.472,0.531,13.286
		c-3.524,3.816-9.475,4.051-13.291,0.527C291.007,259.729,290.82,259.541,290.658,259.364 M178.014,296.084l-50.577-55.007
		l55.005,50.58c1.275,1.17,1.357,3.155,0.188,4.427c-1.174,1.275-3.156,1.357-4.43,0.188
		C178.136,296.212,178.072,296.146,178.014,296.084 M296.27,185.987l-50.58-55.007l55.009,50.58c1.272,1.17,1.356,3.154,0.186,4.428
		c-1.171,1.274-3.153,1.357-4.43,0.186C296.391,186.114,296.326,186.048,296.27,185.987"/>
</g>
</svg>
