<svg xmlns="http://www.w3.org/2000/svg" xmlns:xlink="http://www.w3.org/1999/xlink" preserveAspectRatio="xMidYMid" width="1524" height="942" viewBox="0 0 1524 942">
  <defs>
    <style>
      .cls-1 {
        fill: #a9a8c3;
        opacity: 0.2;
        fill-rule: evenodd;
      }
    </style>
  </defs>
  <path d="M1523.556,541.539 C1522.707,543.791 1520.194,544.931 1517.935,544.074 C1517.924,544.070 1517.914,544.066 1517.904,544.062 C1515.658,543.210 1514.544,540.696 1515.378,538.470 C1516.238,536.204 1518.753,535.064 1521.020,535.924 C1521.020,535.924 1521.034,535.929 1521.041,535.931 C1523.280,536.781 1524.407,539.295 1523.556,541.539 ZM1509.627,429.311 C1507.382,428.459 1506.245,425.948 1507.098,423.699 C1507.956,421.438 1510.462,420.297 1512.721,421.154 C1514.972,422.007 1516.117,424.519 1515.259,426.781 C1514.414,429.035 1511.892,430.170 1509.627,429.311 ZM1317.983,624.824 C1315.719,623.965 1314.580,621.455 1315.439,619.192 C1316.291,616.944 1318.801,615.816 1321.059,616.658 C1323.312,617.513 1324.453,620.025 1323.609,622.279 C1322.757,624.541 1320.234,625.678 1317.983,624.824 ZM1379.476,494.094 C1379.469,494.091 1379.464,494.089 1379.457,494.087 C1377.216,493.237 1376.077,490.718 1376.928,488.473 C1377.785,486.213 1380.294,485.086 1382.558,485.931 C1384.809,486.785 1385.936,489.305 1385.096,491.540 C1384.237,493.805 1381.729,494.948 1379.476,494.094 ZM1389.501,573.661 C1388.657,575.900 1386.144,577.038 1383.886,576.181 C1383.876,576.178 1383.865,576.174 1383.855,576.170 C1381.624,575.323 1380.485,572.803 1381.335,570.563 C1382.186,568.319 1384.712,567.177 1386.961,568.030 C1389.214,568.884 1390.359,571.399 1389.501,573.661 ZM1438.188,747.839 C1436.593,747.234 1435.561,745.796 1435.388,744.211 L1323.511,755.123 C1323.518,755.646 1323.429,756.180 1323.234,756.700 C1322.437,758.802 1320.209,759.923 1318.093,759.384 L1258.839,929.054 L1259.208,931.875 C1260.513,933.041 1261.036,934.928 1260.381,936.670 C1260.265,936.976 1260.118,937.263 1259.945,937.526 L1262.344,955.899 C1263.011,955.910 1263.687,956.035 1264.347,956.286 C1267.418,957.450 1268.961,960.880 1267.799,963.944 C1266.635,967.012 1263.207,968.552 1260.136,967.387 C1258.938,966.932 1257.972,966.132 1257.308,965.142 L1213.334,988.325 L1160.343,1053.171 L1160.211,1053.341 L1106.384,1044.709 L963.297,1120.145 C964.341,1119.636 965.587,1119.543 966.761,1119.988 C969.019,1120.844 970.156,1123.355 969.303,1125.603 C968.457,1127.860 965.933,1129.000 963.680,1128.154 C963.676,1128.152 963.673,1128.151 963.669,1128.149 C961.415,1127.294 960.278,1124.780 961.135,1122.520 C961.505,1121.533 962.197,1120.761 963.049,1120.276 L916.216,1144.966 C916.833,1146.507 916.894,1148.273 916.260,1149.946 C914.912,1153.500 910.944,1155.285 907.387,1153.936 C906.753,1153.695 906.177,1153.373 905.664,1152.984 L724.719,1343.803 C726.156,1345.638 726.630,1348.155 725.744,1350.489 C724.399,1354.035 720.415,1355.817 716.858,1354.468 C713.301,1353.119 711.517,1349.149 712.862,1345.603 C712.900,1345.503 712.940,1345.404 712.981,1345.307 L617.154,1264.137 L552.637,1310.656 C553.291,1311.757 553.456,1313.133 552.967,1314.423 C552.111,1316.679 549.595,1317.811 547.338,1316.964 L547.329,1316.960 C545.075,1316.105 543.941,1313.592 544.795,1311.340 C545.001,1310.796 545.302,1310.317 545.673,1309.914 L369.406,1114.144 C368.252,1115.004 366.695,1115.275 365.250,1114.726 C362.997,1113.872 361.852,1111.368 362.713,1109.099 C363.562,1106.859 366.077,1105.722 368.329,1106.577 L368.337,1106.580 C368.350,1106.584 368.362,1106.589 368.373,1106.593 L427.439,988.118 C427.110,987.916 426.815,987.674 426.558,987.402 L345.993,1050.727 C346.726,1051.855 346.934,1053.306 346.422,1054.655 C345.569,1056.904 343.058,1058.037 340.791,1057.187 L340.780,1057.182 C338.531,1056.329 337.409,1053.818 338.245,1051.562 C338.648,1050.498 339.424,1049.681 340.370,1049.208 L290.884,923.521 L203.162,898.883 C202.312,901.124 199.794,902.254 197.547,901.402 C197.547,901.402 197.531,901.396 197.523,901.393 C195.269,900.538 194.154,898.028 194.987,895.779 C195.793,893.654 198.091,892.521 200.241,893.115 L238.339,792.205 C236.328,791.236 235.370,788.860 236.165,786.733 C236.191,786.663 236.219,786.592 236.250,786.524 L105.271,714.442 C104.094,715.562 102.334,715.983 100.705,715.365 C98.454,714.511 97.325,711.995 98.168,709.735 C98.819,708.021 100.435,706.952 102.169,706.921 L112.208,593.076 C111.974,593.030 111.740,592.964 111.509,592.877 C109.258,592.023 108.130,589.506 108.970,587.257 C109.826,585.000 112.338,583.865 114.591,584.720 C114.594,584.721 114.598,584.723 114.598,584.723 C115.939,585.231 116.884,586.324 117.250,587.599 L246.130,556.008 C246.021,555.295 246.088,554.545 246.362,553.823 C247.206,551.558 249.730,550.429 251.998,551.282 C253.657,551.911 254.714,553.439 254.813,555.106 L263.517,555.373 L260.619,491.881 C260.380,491.822 260.141,491.748 259.906,491.659 C256.823,490.490 255.278,487.063 256.441,483.996 C257.605,480.927 261.034,479.388 264.117,480.557 C264.574,480.731 264.999,480.955 265.385,481.221 L771.964,149.543 C771.229,148.103 771.082,146.371 771.701,144.740 C772.864,141.672 776.294,140.130 779.367,141.296 C782.432,142.458 783.977,145.887 782.813,148.955 C782.377,150.105 781.623,151.039 780.690,151.699 L861.240,311.716 C862.422,311.383 863.719,311.413 864.958,311.883 C868.030,313.048 869.576,316.476 868.412,319.543 C867.894,320.911 866.918,321.978 865.720,322.634 L900.241,432.882 L952.362,396.866 C951.744,395.778 951.594,394.432 952.072,393.167 C952.910,390.932 955.448,389.781 957.698,390.634 C957.922,390.719 958.135,390.821 958.337,390.937 L1059.222,248.007 C1057.957,246.833 1057.456,244.976 1058.106,243.264 C1058.957,241.019 1061.481,239.880 1063.731,240.734 C1065.985,241.589 1067.135,244.103 1066.282,246.351 C1066.073,246.903 1065.765,247.387 1065.388,247.791 L1169.330,359.105 C1170.490,358.205 1172.077,357.913 1173.547,358.470 C1173.795,358.565 1174.028,358.679 1174.248,358.810 L1203.473,318.850 L1394.136,434.286 C1395.251,433.588 1396.667,433.405 1397.997,433.909 C1398.006,433.913 1398.017,433.917 1398.026,433.920 C1400.267,434.771 1401.396,437.277 1400.547,439.530 C1399.697,441.772 1397.176,442.903 1394.923,442.060 C1394.350,441.843 1393.848,441.517 1393.432,441.116 L1274.883,574.446 L1274.753,574.597 L1188.483,567.100 C1188.435,567.359 1188.364,567.618 1188.267,567.873 C1187.428,570.130 1184.896,571.266 1182.645,570.412 C1181.812,570.096 1181.131,569.553 1180.646,568.880 L1167.908,576.405 L1207.736,588.137 C1208.986,585.234 1212.323,583.807 1215.313,584.941 C1218.375,586.102 1219.919,589.531 1218.756,592.600 C1218.136,594.234 1216.872,595.435 1215.363,596.025 L1226.767,683.382 L1370.869,675.355 C1370.905,674.972 1370.990,674.588 1371.133,674.212 C1371.979,671.961 1374.510,670.822 1376.780,671.669 C1379.017,672.517 1380.164,675.046 1379.311,677.295 C1379.091,677.877 1378.759,678.383 1378.352,678.801 L1437.297,740.124 C1438.430,739.368 1439.898,739.150 1441.269,739.670 C1443.528,740.527 1444.667,743.038 1443.820,745.291 C1442.962,747.552 1440.445,748.695 1438.188,747.839 ZM1317.343,759.121 C1315.260,758.169 1314.239,755.770 1315.052,753.610 C1315.148,753.359 1315.265,753.121 1315.399,752.898 L1227.431,688.466 L1258.607,927.278 L1317.343,759.121 ZM1260.825,956.070 L1258.576,938.846 C1257.468,939.518 1256.069,939.693 1254.757,939.195 L1254.746,939.191 C1254.427,939.070 1254.131,938.916 1253.859,938.733 L1244.709,949.932 L1257.763,957.934 C1258.572,957.006 1259.648,956.361 1260.825,956.070 ZM766.756,530.020 C766.261,530.027 765.758,529.950 765.265,529.780 L747.308,569.905 L770.252,561.239 L766.755,530.020 C766.755,530.020 766.756,530.020 766.756,530.020 ZM772.756,411.000 C772.167,412.554 770.779,413.580 769.233,413.781 L769.123,419.442 L858.638,321.617 C858.354,321.331 858.102,321.017 857.884,320.683 L790.357,348.409 L799.218,375.558 L772.006,406.629 C772.995,407.803 773.338,409.467 772.756,411.000 ZM770.222,405.365 C770.678,405.538 771.090,405.781 771.447,406.077 L798.318,375.371 L789.619,348.712 L733.643,371.695 L742.935,381.512 L766.074,405.948 C767.226,405.095 768.779,404.831 770.222,405.365 ZM267.801,487.411 L565.703,634.127 C566.926,632.122 569.230,631.033 571.544,631.339 L579.781,600.708 L557.166,489.709 C556.504,489.782 555.816,489.704 555.150,489.452 C552.884,488.592 551.760,486.067 552.595,483.830 C553.453,481.569 555.963,480.442 558.223,481.279 C558.517,481.391 558.790,481.530 559.045,481.692 L608.428,418.160 L267.709,484.446 C267.984,485.390 268.028,486.406 267.801,487.411 ZM407.743,764.699 C406.888,766.953 404.375,768.090 402.123,767.236 L402.114,767.233 C401.101,766.848 400.314,766.131 399.831,765.254 L351.339,801.257 L357.564,819.124 C358.243,819.041 358.951,819.117 359.635,819.377 C359.641,819.380 359.646,819.382 359.652,819.383 C360.802,819.820 361.658,820.684 362.109,821.726 L429.375,811.301 C429.335,810.700 429.418,810.080 429.642,809.478 C430.496,807.227 433.024,806.101 435.274,806.946 C436.392,807.370 437.238,808.203 437.702,809.208 L575.339,760.688 L570.183,643.139 C569.677,643.088 569.169,642.969 568.671,642.780 C567.865,642.475 567.165,642.013 566.591,641.443 L406.775,760.099 C407.927,761.272 408.359,763.053 407.743,764.699 ZM365.656,703.249 C366.454,701.179 368.653,700.047 370.757,700.552 L411.926,616.560 L362.680,559.210 L265.087,556.205 L267.483,608.663 L277.520,640.867 L288.727,676.806 C289.519,676.636 290.369,676.686 291.188,676.994 C293.443,677.849 294.583,680.366 293.729,682.617 C293.405,683.469 292.844,684.160 292.149,684.645 L337.012,762.610 C338.034,762.140 339.236,762.063 340.373,762.494 C340.380,762.497 340.386,762.499 340.393,762.502 L367.010,708.196 C365.586,707.048 364.979,705.062 365.656,703.249 ZM334.754,765.028 C335.074,764.184 335.629,763.496 336.316,763.011 L291.463,685.035 C290.466,685.491 289.297,685.572 288.187,685.178 C288.187,685.178 288.184,685.178 288.182,685.177 C288.184,685.178 288.185,685.178 288.185,685.178 L273.590,716.856 L272.528,719.163 L275.313,780.144 L334.501,767.117 C334.416,766.435 334.492,765.720 334.754,765.028 ZM271.134,722.191 L242.433,784.500 C243.398,785.051 244.088,785.935 244.413,786.944 L273.794,780.478 L271.134,722.191 ZM272.448,717.420 L287.454,684.843 C285.633,683.798 284.785,681.554 285.552,679.532 C285.996,678.361 286.887,677.492 287.957,677.046 L279.501,649.914 L267.626,611.819 L272.448,717.420 ZM339.886,770.809 C339.054,771.014 338.153,770.976 337.292,770.649 C337.292,770.649 337.280,770.646 337.275,770.644 C335.986,770.154 335.063,769.120 334.674,767.900 L275.350,780.960 L278.427,848.351 C279.190,848.325 279.969,848.446 280.726,848.734 C281.576,849.056 282.309,849.549 282.901,850.158 L350.134,800.239 L339.886,770.809 ZM283.820,851.387 C284.300,852.239 284.569,853.204 284.585,854.194 L332.905,860.069 L355.216,826.729 C353.889,825.564 353.351,823.660 354.015,821.910 C354.507,820.613 355.548,819.687 356.773,819.297 L350.664,801.759 L283.820,851.387 ZM434.080,984.790 L523.928,1001.140 L578.388,896.070 C576.591,895.030 575.498,893.125 575.437,891.103 L432.690,873.749 L430.239,980.071 C430.584,980.112 430.931,980.196 431.270,980.324 C431.270,980.324 431.278,980.327 431.282,980.329 C433.158,981.040 434.252,982.894 434.080,984.790 ZM695.233,1202.861 C695.234,1202.857 695.236,1202.853 695.236,1202.853 C695.714,1201.586 696.726,1200.675 697.922,1200.274 L657.862,1030.137 C657.161,1030.235 656.429,1030.164 655.724,1029.896 C654.265,1029.343 653.271,1028.095 652.980,1026.675 L464.915,1126.374 C465.501,1127.897 465.550,1129.630 464.927,1131.274 C464.746,1131.752 464.517,1132.198 464.247,1132.610 L473.294,1140.272 L695.237,1202.849 C695.237,1202.849 695.234,1202.857 695.233,1202.861 ZM732.180,1152.561 C733.081,1150.184 735.159,1148.599 737.500,1148.214 L754.122,978.156 C753.782,978.083 753.443,977.984 753.109,977.857 C751.741,977.338 750.635,976.433 749.870,975.311 L660.372,1022.756 C661.530,1023.932 661.970,1025.714 661.349,1027.365 C660.866,1028.640 659.846,1029.557 658.641,1029.956 L698.699,1200.091 C699.404,1199.990 700.144,1200.061 700.858,1200.330 C701.495,1200.571 702.045,1200.947 702.484,1201.412 L734.779,1176.050 L736.206,1161.447 C736.198,1161.444 736.189,1161.440 736.180,1161.436 C732.623,1160.087 730.835,1156.107 732.180,1152.561 ZM824.848,1101.072 C825.232,1100.053 825.960,1099.263 826.851,1098.784 L788.875,1010.608 L759.485,977.077 C758.367,977.851 757.032,978.287 755.652,978.306 L739.052,1148.137 C739.722,1148.180 740.398,1148.323 741.059,1148.573 C743.375,1149.452 744.944,1151.446 745.385,1153.710 L764.255,1152.904 L825.270,1104.992 C824.544,1103.866 824.342,1102.424 824.848,1101.072 ZM836.263,1064.670 L790.573,1012.546 L827.578,1098.474 C828.160,1098.286 828.786,1098.218 829.413,1098.290 C829.413,1098.290 829.416,1098.290 829.417,1098.290 C829.416,1098.290 829.414,1098.289 829.414,1098.289 L829.413,1098.290 L836.263,1064.670 ZM1007.104,1027.499 C1007.627,1026.110 1008.785,1025.148 1010.126,1024.813 L1006.719,1002.811 L996.720,938.300 C996.720,938.300 996.728,938.300 996.732,938.299 C996.728,938.300 996.724,938.300 996.724,938.300 C996.122,938.337 995.508,938.250 994.910,938.025 C992.927,937.273 991.802,935.233 992.149,933.215 C992.149,933.215 992.149,933.213 992.149,933.212 L874.262,901.759 C874.262,901.759 874.254,901.779 874.250,901.789 C873.533,903.698 871.625,904.802 869.686,904.582 L864.975,927.699 L837.306,1063.534 L860.150,1089.594 L1007.007,1030.304 C1006.738,1029.415 1006.749,1028.435 1007.104,1027.499 ZM1036.878,798.788 C1036.884,798.773 1036.890,798.756 1036.896,798.740 C1036.898,798.737 1036.899,798.734 1036.899,798.734 C1036.998,798.483 1037.114,798.249 1037.249,798.030 C1037.114,798.249 1036.998,798.483 1036.900,798.731 C1036.900,798.731 1036.898,798.737 1036.896,798.740 L994.205,777.485 L984.921,785.334 C985.905,786.863 986.178,788.823 985.483,790.655 C985.443,790.761 985.400,790.865 985.354,790.968 L1033.764,820.640 L1039.200,804.313 C1037.089,803.381 1036.055,800.958 1036.878,798.788 ZM854.007,641.686 C854.250,641.037 854.632,640.482 855.108,640.040 L847.969,630.859 L798.076,714.883 C799.921,716.390 800.732,718.916 799.976,721.282 L808.934,724.590 L824.353,698.829 L855.513,646.758 C853.962,645.627 853.292,643.570 854.007,641.686 ZM738.111,445.477 L636.855,415.491 C635.758,418.096 632.963,419.543 630.242,419.012 L609.763,495.138 L686.402,509.845 L740.220,451.030 C738.592,449.703 737.767,447.582 738.111,445.477 ZM641.938,502.134 L609.552,495.922 L580.925,602.341 L584.720,620.967 L685.762,510.542 L641.938,502.134 ZM437.823,812.562 C437.199,814.209 435.688,815.259 434.036,815.373 L432.726,872.203 L575.593,889.571 C575.652,889.320 575.728,889.069 575.822,888.821 C576.648,886.646 578.621,885.234 580.791,885.015 L575.375,761.521 L437.968,809.953 C438.182,810.788 438.152,811.695 437.823,812.562 ZM866.082,898.709 C866.670,897.140 868.075,896.110 869.639,895.921 C869.639,895.921 869.647,895.921 869.651,895.920 C869.647,895.921 869.642,895.921 869.642,895.921 L869.639,895.921 L869.194,879.793 L768.685,961.718 L788.605,1007.974 L836.648,1062.782 L847.246,1010.759 L868.906,904.421 C868.811,904.391 868.714,904.358 868.618,904.322 C868.615,904.321 868.613,904.320 868.613,904.320 L868.610,904.318 C866.360,903.465 865.228,900.960 866.082,898.709 ZM874.469,900.989 L992.358,932.438 C992.363,932.426 992.367,932.415 992.371,932.404 C993.154,930.339 995.343,929.207 997.447,929.704 C997.450,929.705 997.453,929.706 997.453,929.706 C997.638,929.750 997.819,929.805 997.997,929.872 C997.819,929.805 997.638,929.750 997.457,929.706 C997.457,929.706 997.450,929.705 997.447,929.704 L1009.984,892.078 L1033.263,822.147 L984.545,792.288 C982.974,794.226 980.278,795.031 977.818,794.098 C977.062,793.812 976.398,793.386 975.843,792.864 L869.979,879.153 L870.442,895.900 C870.865,895.927 871.291,896.018 871.708,896.176 L871.723,896.181 C873.701,896.932 874.814,898.977 874.469,900.989 ZM974.870,791.669 C974.690,791.380 974.536,791.077 974.409,790.761 L871.749,817.208 C871.083,818.568 869.774,819.450 868.334,819.619 L869.925,877.208 L974.870,791.669 ZM946.673,777.094 L808.895,726.218 L794.745,749.862 C796.294,750.994 796.963,753.058 796.250,754.937 C796.129,755.260 795.973,755.559 795.788,755.833 L864.708,812.231 C865.881,811.039 867.692,810.578 869.360,811.210 C869.365,811.213 869.371,811.215 869.371,811.215 C870.331,811.579 871.081,812.239 871.566,813.049 C871.567,813.052 871.568,813.053 871.568,813.053 C871.705,813.282 871.820,813.521 871.912,813.769 C872.117,814.317 872.213,814.910 872.184,815.509 L974.023,789.275 C973.940,788.605 973.970,787.915 974.126,787.231 L947.720,777.480 L919.953,790.769 L871.912,813.769 C871.820,813.521 871.705,813.282 871.570,813.055 C871.570,813.055 871.567,813.052 871.566,813.049 L946.673,777.094 ZM790.259,757.313 C788.251,756.338 787.281,753.979 788.078,751.852 C788.089,751.825 788.098,751.800 788.108,751.773 L692.052,702.995 C690.977,704.716 688.792,705.501 686.814,704.751 C686.011,704.446 685.349,703.931 684.868,703.291 L625.662,739.795 L614.265,746.823 C614.788,747.872 614.889,749.127 614.441,750.309 C614.231,750.863 613.919,751.350 613.536,751.757 L617.898,756.677 L707.638,857.900 L757.095,845.158 L790.267,757.315 C790.267,757.315 790.265,757.315 790.265,757.314 L757.095,845.158 L790.259,757.313 ZM743.176,895.527 C742.789,896.548 742.061,897.339 741.169,897.820 L768.051,960.244 L869.141,877.847 L867.537,819.640 C867.115,819.611 866.690,819.522 866.274,819.364 C865.930,819.234 865.613,819.065 865.324,818.863 L860.861,820.013 L783.960,867.019 L743.001,892.058 C743.516,893.104 743.616,894.353 743.176,895.527 ZM742.586,891.379 L858.200,820.699 L757.374,846.674 L740.991,890.059 C741.639,890.372 742.178,890.831 742.586,891.379 ZM756.432,846.916 L708.784,859.191 L736.501,890.456 C737.555,889.689 738.929,889.405 740.247,889.776 L756.432,846.916 ZM734.988,892.441 C735.198,891.886 735.509,891.400 735.891,890.994 L707.902,859.419 L587.300,890.488 C587.354,891.210 587.277,891.952 587.052,892.678 L705.447,947.414 L736.449,897.464 C734.943,896.326 734.301,894.291 734.988,892.441 ZM706.757,858.126 L612.940,752.283 C611.789,753.126 610.250,753.390 608.817,752.851 C607.700,752.427 606.857,751.593 606.395,750.587 L576.881,760.990 L582.326,885.062 C582.711,885.125 583.096,885.228 583.475,885.372 C585.188,886.021 586.426,887.377 586.985,888.982 L706.757,858.126 ZM611.900,744.686 C611.903,744.687 611.906,744.688 611.906,744.688 C612.711,744.993 613.371,745.509 613.851,746.150 C613.852,746.151 613.852,746.153 613.852,746.153 C614.010,746.364 614.148,746.587 614.265,746.822 C614.148,746.587 614.010,746.364 613.853,746.154 C613.853,746.154 613.852,746.151 613.851,746.150 L640.002,730.023 L684.446,702.607 C683.926,701.562 683.826,700.313 684.273,699.134 C685.103,696.909 687.561,695.769 689.766,696.534 L695.260,684.256 L589.673,645.267 L609.882,744.431 C610.545,744.359 611.234,744.435 611.900,744.686 ZM758.037,844.916 L862.686,817.956 L863.904,817.211 C863.390,816.169 863.293,814.924 863.738,813.751 C863.860,813.426 864.018,813.124 864.203,812.847 L795.283,756.453 C795.284,756.453 795.285,756.450 795.285,756.450 L864.206,812.843 L795.287,756.449 C795.287,756.449 795.284,756.453 795.283,756.453 C794.198,757.554 792.568,758.029 791.009,757.596 L758.037,844.916 ZM768.045,962.239 L761.336,967.707 C762.479,969.479 762.795,971.750 761.992,973.868 C761.674,974.706 761.210,975.446 760.638,976.069 L786.907,1006.037 L768.045,962.239 ZM767.410,960.766 L740.436,898.134 C739.527,898.429 738.514,898.430 737.547,898.068 L737.534,898.063 C737.396,898.010 737.262,897.952 737.132,897.887 C737.132,897.887 737.128,897.886 737.126,897.884 C737.128,897.886 737.130,897.886 737.130,897.886 L706.181,947.753 L749.664,967.856 C751.348,965.074 754.829,963.802 757.986,964.999 C758.903,965.347 759.703,965.868 760.361,966.512 L767.410,960.766 ZM749.018,969.257 L705.363,949.071 L660.880,1020.739 L749.147,973.947 C748.574,972.493 748.491,970.841 749.018,969.257 ZM704.629,948.732 L586.417,894.072 C585.046,896.275 582.360,897.359 579.812,896.664 L525.510,1001.429 L653.049,1024.640 C653.084,1024.515 653.125,1024.391 653.170,1024.268 C654.026,1022.014 656.542,1020.883 658.803,1021.734 C658.842,1021.749 658.880,1021.763 658.917,1021.778 L659.471,1021.485 L704.629,948.732 ZM576.844,760.157 L606.128,749.833 C605.915,748.996 605.948,748.091 606.276,747.228 C606.766,745.904 607.839,744.968 609.097,744.590 L588.795,644.942 L575.932,640.193 C575.023,641.777 573.448,642.821 571.706,643.096 L576.844,760.157 ZM574.250,632.409 L584.056,621.692 L580.463,604.056 L573.018,631.730 C573.463,631.912 573.875,632.140 574.250,632.409 ZM608.039,495.631 L560.880,486.587 C560.847,486.697 560.810,486.809 560.768,486.918 C560.269,488.235 559.196,489.174 557.940,489.551 L580.242,598.992 L608.039,495.631 ZM584.439,623.572 L575.380,633.472 C575.660,633.814 575.900,634.185 576.096,634.577 L585.926,630.865 L584.439,623.572 ZM576.601,636.031 C576.785,636.917 576.768,637.853 576.519,638.774 L588.433,643.173 L586.236,632.391 L576.601,636.031 ZM589.312,643.497 L695.890,682.850 L745.368,572.282 L586.991,632.107 L589.312,643.497 ZM696.640,683.127 L787.664,716.736 L785.277,695.420 L770.428,562.815 L746.423,571.885 L696.640,683.127 ZM696.011,684.533 L690.494,696.863 C692.350,697.910 693.212,700.168 692.435,702.218 C692.427,702.239 692.418,702.262 692.409,702.283 L708.545,710.478 L788.471,751.060 C788.469,751.062 788.467,751.066 788.467,751.066 L788.465,751.069 C788.465,751.069 788.469,751.062 788.471,751.060 C789.114,750.039 790.144,749.349 791.288,749.113 L787.856,718.448 L696.011,684.533 ZM792.075,749.023 C792.618,749.012 793.172,749.100 793.711,749.303 C793.829,749.348 793.943,749.397 794.054,749.449 L808.129,725.934 L799.321,722.682 C797.838,725.003 794.887,726.047 792.211,725.033 C790.816,724.503 789.736,723.507 789.081,722.289 L792.075,749.023 ZM844.062,667.451 L809.699,724.873 L948.613,776.166 L967.327,767.206 C966.975,766.254 966.951,765.176 967.336,764.155 C967.533,763.632 967.819,763.169 968.171,762.777 C968.171,762.777 968.175,762.772 968.178,762.769 C968.175,762.772 968.173,762.774 968.173,762.774 L968.171,762.777 L860.744,646.693 C859.585,647.583 858.010,647.871 856.544,647.315 C856.427,647.270 856.312,647.221 856.201,647.168 L844.062,667.451 ZM924.047,713.925 L968.757,762.234 C969.716,761.498 970.965,761.173 972.202,761.395 L973.003,758.524 L945.819,625.462 L874.120,640.314 L862.428,642.736 C862.507,643.402 862.430,644.095 862.176,644.765 C861.976,645.292 861.687,645.759 861.330,646.153 L924.047,713.925 ZM972.968,761.604 C973.230,761.704 973.476,761.827 973.707,761.969 L973.351,760.229 L972.968,761.604 ZM973.908,755.278 L1013.067,614.888 C1011.756,614.386 1010.826,613.322 1010.445,612.075 L947.324,625.150 L973.908,755.278 ZM969.877,769.771 C969.877,769.771 969.864,769.767 969.857,769.764 C968.907,769.404 968.157,768.743 967.674,767.931 L949.661,776.552 L974.659,785.783 C975.381,784.405 976.591,783.408 977.989,782.929 L974.985,768.225 C973.860,769.799 971.770,770.490 969.877,769.771 ZM979.495,782.622 C980.330,782.562 981.194,782.678 982.030,782.995 C982.752,783.269 983.390,783.669 983.929,784.160 L992.708,776.739 L976.660,768.748 L979.495,782.622 ZM1025.242,848.780 L998.202,929.956 C1000.316,930.872 1001.360,933.307 1000.536,935.494 C1000.009,936.884 998.850,937.846 997.511,938.179 L1010.916,1024.691 C1011.515,1024.654 1012.132,1024.741 1012.731,1024.964 C1012.807,1024.993 1012.882,1025.024 1012.956,1025.057 L1102.576,864.627 L1033.969,822.579 L1025.242,848.780 ZM836.922,1065.423 L830.194,1098.453 C830.288,1098.480 830.380,1098.512 830.472,1098.547 L830.483,1098.551 C831.531,1098.949 832.339,1099.707 832.816,1100.630 L858.643,1090.203 L836.922,1065.423 ZM745.506,1155.246 C745.482,1155.980 745.338,1156.723 745.063,1157.447 C743.909,1160.490 740.813,1162.240 737.713,1161.825 L736.451,1174.739 L762.181,1154.533 L745.506,1155.246 ZM652.254,1025.311 L525.125,1002.173 L462.404,1123.181 C463.122,1123.677 463.727,1124.298 464.201,1125.000 L652.254,1025.311 ZM433.231,815.354 C432.880,815.313 432.528,815.229 432.182,815.098 C430.795,814.572 429.832,813.414 429.497,812.073 L362.361,822.495 C362.542,823.298 362.499,824.164 362.189,824.996 C361.333,827.250 358.812,828.372 356.554,827.532 C356.308,827.439 356.077,827.327 355.859,827.196 L347.003,840.433 L333.794,860.177 L431.921,872.106 L433.231,815.354 ZM559.663,482.173 C560.650,483.091 561.168,484.426 561.035,485.787 L608.250,494.846 L628.775,418.523 C627.213,417.762 626.115,416.385 625.662,414.807 L609.610,417.930 L559.663,482.173 ZM625.432,413.281 C625.418,412.547 625.542,411.800 625.816,411.075 C626.980,408.008 630.407,406.467 633.481,407.632 C634.713,408.100 635.700,408.934 636.365,409.962 L731.725,370.816 L730.971,370.019 L727.945,366.822 C726.783,367.731 725.186,368.031 723.698,367.466 C722.207,366.901 721.204,365.610 720.943,364.152 L651.060,370.044 C650.111,372.097 647.717,373.108 645.561,372.291 C645.440,372.245 645.324,372.195 645.210,372.140 L611.049,416.079 L625.432,413.281 ZM729.329,364.937 C729.136,365.445 728.859,365.897 728.519,366.281 L732.507,370.495 L789.141,347.246 L784.752,333.795 C783.899,334.024 782.970,333.996 782.078,333.657 C780.408,333.024 779.345,331.468 779.263,329.781 L739.225,327.449 L727.143,359.461 C729.161,360.433 730.137,362.807 729.329,364.937 ZM767.137,413.533 C767.130,413.530 767.123,413.527 767.123,413.527 L767.114,413.524 C764.878,412.676 763.744,410.161 764.596,407.916 C764.800,407.368 765.102,406.887 765.475,406.484 L732.861,372.016 L637.031,411.362 C637.304,412.204 637.391,413.109 637.263,414.014 L738.557,443.997 C739.833,441.147 743.127,439.757 746.082,440.878 C746.916,441.195 747.638,441.680 748.225,442.282 L768.321,420.320 L768.447,413.811 C768.010,413.787 767.568,413.696 767.137,413.533 ZM749.164,443.542 C749.989,445.018 750.181,446.834 749.535,448.539 C748.371,451.607 744.930,453.141 741.870,451.981 C741.764,451.941 741.661,451.898 741.558,451.853 L688.185,510.187 L762.490,524.446 C762.489,524.449 762.488,524.451 762.488,524.451 L688.177,510.194 L762.488,524.454 C762.413,524.710 762.364,524.969 762.338,525.227 C762.338,525.227 762.337,525.232 762.337,525.234 L687.547,510.885 L585.104,622.846 L586.680,630.580 L746.254,570.304 L764.535,529.454 C763.021,528.605 762.169,526.933 762.337,525.234 C762.337,525.232 762.338,525.230 762.338,525.230 C762.364,524.969 762.413,524.710 762.488,524.454 C762.488,524.454 762.489,524.449 762.490,524.446 C762.522,524.337 762.558,524.226 762.599,524.117 C763.209,522.473 764.722,521.425 766.368,521.309 L768.276,422.654 L749.164,443.542 ZM771.022,560.948 L788.480,554.354 L769.027,529.340 C768.577,529.626 768.076,529.828 767.551,529.934 C767.551,529.934 767.549,529.935 767.548,529.935 L771.022,560.948 ZM771.199,562.525 L784.640,682.630 L788.493,717.043 L788.838,717.170 C790.072,714.238 793.422,712.791 796.423,713.930 C796.540,713.974 796.655,714.023 796.768,714.074 L846.954,629.554 L801.878,571.583 L789.468,555.624 L771.199,562.525 ZM791.751,557.275 L847.387,628.823 L851.578,621.765 C851.476,621.062 851.546,620.325 851.816,619.614 C852.276,618.384 853.230,617.493 854.368,617.069 L918.197,509.569 C917.520,509.031 916.978,508.357 916.596,507.604 L790.241,555.332 L791.751,557.275 ZM856.311,616.811 C856.690,616.846 857.072,616.931 857.446,617.071 C859.695,617.924 860.841,620.437 859.983,622.698 C859.130,624.948 856.618,626.086 854.357,625.228 C853.481,624.896 852.773,624.313 852.285,623.590 L848.403,630.128 L855.734,639.556 C856.853,638.847 858.283,638.657 859.618,639.164 C859.618,639.164 859.635,639.169 859.643,639.172 C860.952,639.668 861.883,640.725 862.265,641.963 L945.659,624.681 L944.870,620.820 C943.888,622.810 941.536,623.774 939.420,622.971 C939.413,622.969 939.405,622.966 939.405,622.966 L939.398,622.963 C937.150,622.110 936.020,619.594 936.861,617.350 C937.714,615.099 940.236,613.964 942.487,614.818 C942.497,614.822 942.508,614.826 942.519,614.830 C943.002,615.013 943.432,615.274 943.803,615.593 L922.401,510.836 C921.539,510.910 920.649,510.798 919.786,510.471 C919.696,510.437 919.606,510.400 919.518,510.362 L856.311,616.811 ZM947.165,624.370 L1010.282,611.289 C1010.206,610.623 1010.283,609.929 1010.533,609.259 C1010.996,608.032 1011.956,607.132 1013.100,606.705 L991.262,525.978 L927.396,507.164 C926.739,508.775 925.440,509.952 923.903,510.505 L947.165,624.370 ZM1011.975,599.508 L1013.866,606.495 C1014.613,606.362 1015.405,606.422 1016.166,606.710 C1017.821,607.338 1018.870,608.864 1018.979,610.519 L1059.155,611.594 L1100.216,612.686 C1100.253,612.316 1100.339,611.944 1100.478,611.579 C1101.335,609.318 1103.846,608.173 1106.105,609.030 C1107.009,609.373 1107.734,609.980 1108.222,610.732 L1165.049,577.176 L992.157,526.242 L1011.975,599.508 ZM1103.023,617.198 C1101.399,616.582 1100.350,615.105 1100.211,613.484 L1087.168,613.135 L1018.959,611.305 C1018.959,611.305 1018.958,611.307 1018.958,611.308 L1087.168,613.135 L1018.957,611.316 C1018.916,611.659 1018.832,612.002 1018.705,612.339 C1017.946,614.339 1015.873,615.466 1013.836,615.100 L974.861,754.817 L974.257,756.983 L974.257,756.984 L976.457,767.756 L993.371,776.178 L1131.178,659.683 L1106.546,617.007 C1105.490,617.543 1104.219,617.652 1103.023,617.198 ZM994.869,776.923 L1037.251,798.027 C1038.325,796.282 1040.516,795.498 1042.502,796.235 C1043.456,796.597 1044.210,797.258 1044.697,798.070 L1171.201,736.843 C1170.839,735.884 1170.810,734.795 1171.198,733.762 C1171.516,732.911 1172.075,732.221 1172.769,731.736 L1131.959,661.035 L994.869,776.923 ZM1171.547,737.557 L1045.043,798.786 C1045.405,799.745 1045.432,800.834 1045.042,801.865 C1044.263,803.935 1042.069,805.066 1039.967,804.571 L1034.470,821.073 L1103.330,863.278 L1172.813,738.897 C1172.292,738.541 1171.863,738.081 1171.547,737.557 ZM1104.009,863.694 L1244.020,949.510 L1253.237,938.229 C1252.042,937.057 1251.581,935.250 1252.211,933.587 C1252.609,932.530 1253.368,931.720 1254.294,931.244 L1187.566,766.670 L1176.541,739.481 C1175.656,739.747 1174.678,739.734 1173.746,739.380 C1173.739,739.377 1173.733,739.375 1173.726,739.372 C1173.653,739.345 1173.581,739.315 1173.511,739.284 L1104.009,863.694 ZM1256.627,963.773 C1256.189,962.505 1256.175,961.083 1256.688,959.730 C1256.755,959.553 1256.829,959.382 1256.911,959.216 L1243.725,951.134 L1215.817,985.287 L1256.627,963.773 ZM1159.880,1052.495 L1211.530,989.277 L1107.545,1044.097 L1159.880,1052.495 ZM1214.013,986.239 L1243.037,950.714 L1103.255,865.043 L1062.597,937.823 L1013.651,1025.444 C1014.928,1026.317 1015.645,1027.805 1015.545,1029.334 L1105.027,1043.693 L1214.013,986.239 ZM905.938,1141.829 C907.731,1140.607 910.073,1140.251 912.263,1141.082 C913.623,1141.597 914.725,1142.498 915.491,1143.611 L1103.865,1044.305 L1015.420,1030.124 C1015.380,1030.278 1015.333,1030.431 1015.275,1030.582 C1014.418,1032.843 1011.905,1033.969 1009.646,1033.123 L1009.637,1033.119 C1008.589,1032.722 1007.781,1031.963 1007.305,1031.039 L860.700,1090.221 L905.938,1141.829 ZM859.192,1090.830 L833.113,1101.358 C833.386,1102.245 833.378,1103.224 833.026,1104.158 C832.167,1106.422 829.649,1107.560 827.394,1106.705 C826.754,1106.462 826.206,1106.087 825.765,1105.622 L765.619,1152.846 L803.616,1151.222 C803.195,1150.229 803.139,1149.079 803.550,1147.991 C804.405,1145.735 806.923,1144.603 809.177,1145.449 L809.193,1145.456 C811.381,1146.285 812.503,1148.677 811.785,1150.875 L902.962,1146.979 C903.011,1146.339 903.151,1145.696 903.391,1145.065 C903.714,1144.212 904.190,1143.462 904.774,1142.832 L859.192,1090.830 ZM721.734,1341.612 C722.442,1341.881 723.081,1342.252 723.639,1342.705 L904.550,1151.923 C903.736,1150.952 903.204,1149.770 903.017,1148.517 L810.881,1152.454 C809.719,1153.746 807.831,1154.263 806.091,1153.603 C805.546,1153.396 805.066,1153.092 804.663,1152.719 L763.544,1154.476 L736.344,1175.832 L720.176,1341.219 C720.698,1341.287 721.220,1341.417 721.734,1341.612 ZM713.760,1343.952 C714.928,1342.370 716.715,1341.377 718.639,1341.193 L734.673,1177.144 L702.973,1202.033 C703.705,1203.159 703.911,1204.603 703.399,1205.953 C702.548,1208.198 700.030,1209.346 697.779,1208.492 C697.774,1208.490 697.769,1208.488 697.769,1208.488 L697.762,1208.486 C697.065,1208.221 696.476,1207.798 696.019,1207.271 L618.436,1263.212 L713.760,1343.952 ZM617.819,1262.688 L695.560,1206.634 C695.033,1205.746 694.825,1204.677 695.021,1203.620 L474.755,1141.510 L617.819,1262.688 ZM546.261,1309.384 C547.413,1308.520 548.969,1308.248 550.418,1308.798 C551.121,1309.064 551.715,1309.491 552.175,1310.019 L616.536,1263.613 L471.198,1140.507 L370.863,1112.214 C370.659,1112.749 370.360,1113.221 369.992,1113.618 L546.261,1309.384 ZM369.077,1106.942 C370.617,1107.884 371.417,1109.683 371.082,1111.449 L455.056,1135.130 L469.737,1139.269 L463.269,1133.791 C461.411,1135.575 458.624,1136.239 456.052,1135.263 C452.493,1133.913 450.711,1129.947 452.059,1126.393 C453.404,1122.846 457.369,1121.059 460.928,1122.409 C460.968,1122.424 461.009,1122.439 461.048,1122.455 L523.542,1001.885 L433.934,985.575 C433.900,985.700 433.859,985.824 433.812,985.946 C432.970,988.200 430.442,989.339 428.189,988.485 C428.183,988.482 428.178,988.480 428.172,988.478 C428.163,988.474 428.154,988.471 428.145,988.468 L369.077,1106.942 ZM341.110,1048.917 C341.989,1048.663 342.957,1048.679 343.886,1049.027 C344.523,1049.269 345.072,1049.647 345.511,1050.114 L426.070,986.779 C425.343,985.654 425.139,984.210 425.648,982.868 C426.265,981.214 427.782,980.162 429.433,980.051 L431.886,873.651 L332.835,861.609 L291.611,923.233 L341.110,1048.917 ZM200.991,893.397 C200.877,893.342 200.759,893.292 200.638,893.246 C200.638,893.246 200.637,893.246 200.637,893.246 C200.760,893.293 200.878,893.343 200.991,893.397 C202.777,894.257 203.738,896.205 203.379,898.116 L290.978,922.724 L331.947,861.501 L284.410,855.723 C284.354,855.946 284.284,856.170 284.200,856.392 C283.037,859.459 279.604,861.008 276.515,859.837 C273.460,858.677 271.919,855.242 273.082,852.174 C273.760,850.389 275.208,849.121 276.905,848.605 L273.831,781.293 L244.588,787.731 C244.674,788.414 244.599,789.128 244.338,789.817 C243.531,791.945 241.246,793.081 239.088,792.486 L200.991,893.397 ZM251.359,559.630 C250.572,559.797 249.729,559.747 248.921,559.441 C247.653,558.960 246.735,557.961 246.322,556.780 L117.397,588.375 C117.461,589.020 117.379,589.688 117.134,590.336 C116.479,592.101 114.789,593.177 113.003,593.159 L102.962,706.979 C103.242,707.025 103.522,707.101 103.799,707.207 L103.811,707.211 C106.061,708.064 107.191,710.586 106.341,712.827 C106.203,713.192 106.021,713.526 105.804,713.829 L236.629,785.837 C237.718,784.224 239.799,783.492 241.703,784.166 L271.054,720.447 L265.831,606.060 L251.359,559.630 C251.619,559.575 251.872,559.496 252.118,559.395 L252.118,559.395 C251.871,559.496 251.618,559.576 251.359,559.630 ZM254.787,555.889 C254.745,556.231 254.662,556.574 254.534,556.911 C254.090,558.080 253.197,558.949 252.125,559.392 L265.688,602.905 L263.553,556.159 L254.787,555.889 ZM262.157,492.044 L265.052,555.419 L362.887,558.420 L363.054,558.436 L412.861,616.442 L371.507,700.805 C373.627,701.732 374.657,704.157 373.832,706.332 C372.992,708.595 370.478,709.738 368.196,708.872 C368.196,708.872 368.190,708.870 368.187,708.869 C368.007,708.800 367.834,708.721 367.669,708.632 L341.094,762.845 C342.867,763.917 343.670,766.124 342.923,768.120 C342.496,769.246 341.655,770.090 340.639,770.548 L350.810,799.738 L399.326,763.716 C399.235,763.026 399.309,762.304 399.572,761.608 C400.426,759.358 402.940,758.217 405.204,759.076 L405.214,759.080 C405.291,759.109 405.367,759.141 405.442,759.175 L565.647,640.226 C564.839,638.846 564.594,637.155 565.078,635.532 L267.265,488.866 C266.251,490.805 264.268,491.990 262.157,492.044 ZM779.330,152.414 C778.030,152.898 776.555,152.930 775.155,152.400 C774.237,152.051 773.454,151.501 772.841,150.818 L266.555,482.287 C266.747,482.516 266.921,482.759 267.074,483.011 L609.867,416.310 L644.520,371.726 C642.972,370.595 642.307,368.544 643.008,366.670 C643.866,364.408 646.386,363.287 648.639,364.142 C650.716,364.929 651.849,367.125 651.345,369.226 L720.875,363.355 C720.879,362.854 720.969,362.346 721.157,361.851 C721.962,359.730 724.245,358.595 726.403,359.185 L738.694,326.626 L779.297,328.989 C779.341,328.665 779.422,328.341 779.543,328.023 C780.389,325.791 782.904,324.653 785.174,325.495 C787.428,326.350 788.552,328.875 787.718,331.112 C787.299,332.215 786.485,333.053 785.499,333.520 L789.879,346.943 L857.216,319.300 C856.797,318.048 856.792,316.650 857.295,315.326 C857.791,314.016 858.701,312.985 859.821,312.323 L779.330,152.414 ZM864.291,323.194 C863.155,323.479 861.924,323.432 860.747,322.985 C860.434,322.867 860.137,322.725 859.857,322.561 L769.078,421.777 L767.150,521.325 C767.506,521.365 767.864,521.450 768.214,521.582 C768.942,521.859 769.553,522.308 770.018,522.866 L898.919,433.796 L864.291,323.194 ZM899.165,434.583 L770.470,523.520 C771.083,524.606 771.227,525.947 770.758,527.211 C770.512,527.860 770.130,528.415 769.655,528.855 L789.253,554.062 L916.082,506.155 C915.848,505.073 915.913,503.916 916.333,502.811 C916.920,501.263 918.083,500.105 919.485,499.486 L899.165,434.583 ZM954.618,398.797 C953.889,398.521 953.276,398.071 952.810,397.512 L900.488,433.669 L920.961,499.051 C921.951,498.896 922.993,498.987 923.997,499.368 C926.622,500.364 928.132,503.011 927.790,505.675 L990.788,524.232 L975.064,466.108 L956.908,399.010 C956.163,399.141 955.375,399.080 954.618,398.797 ZM1064.807,248.312 C1063.655,249.170 1062.106,249.438 1060.661,248.898 C1060.371,248.788 1060.099,248.651 1059.848,248.490 L958.988,391.397 C959.687,391.998 960.175,392.803 960.394,393.683 C960.394,393.683 960.395,393.690 960.396,393.694 C960.395,393.690 960.394,393.686 960.394,393.686 L1093.636,373.831 C1093.122,373.831 1092.599,373.739 1092.091,373.546 C1092.084,373.544 1092.076,373.541 1092.069,373.538 C1089.820,372.685 1088.701,370.168 1089.540,367.928 C1090.393,365.678 1092.919,364.536 1095.167,365.389 C1097.427,366.246 1098.564,368.763 1097.718,371.010 C1097.223,372.326 1096.153,373.263 1094.900,373.643 L1167.648,362.804 C1167.648,362.804 1167.649,362.810 1167.649,362.812 C1167.649,362.810 1167.649,362.806 1167.649,362.806 C1167.615,362.213 1167.701,361.607 1167.924,361.018 C1168.118,360.500 1168.402,360.040 1168.747,359.650 L1064.807,248.312 ZM1185.726,562.244 C1187.469,562.905 1188.546,564.552 1188.553,566.308 L1274.421,573.775 L1392.913,440.513 C1392.091,439.364 1391.840,437.844 1392.372,436.443 C1392.616,435.799 1392.994,435.247 1393.462,434.806 L1203.681,319.912 L1174.883,359.275 C1176.208,360.440 1176.752,362.347 1176.087,364.101 C1175.511,365.629 1174.164,366.641 1172.657,366.869 C1172.657,366.869 1172.656,366.869 1172.655,366.870 L1184.336,561.970 C1184.799,561.985 1185.269,562.074 1185.726,562.244 ZM1180.245,568.202 C1179.754,567.171 1179.666,565.949 1180.103,564.797 C1180.679,563.259 1182.026,562.245 1183.538,562.017 L1171.863,366.916 C1171.397,366.901 1170.927,366.809 1170.469,366.635 C1169.066,366.103 1168.096,364.935 1167.766,363.589 L1025.567,384.771 L960.515,394.467 C960.552,395.059 960.469,395.667 960.248,396.253 C959.783,397.486 958.825,398.377 957.683,398.800 L991.684,524.496 L1166.872,576.100 L1180.245,568.202 ZM1207.312,589.627 L1166.086,577.482 L1108.597,611.442 C1109.008,612.432 1109.056,613.577 1108.649,614.667 C1108.350,615.454 1107.847,616.105 1107.222,616.582 L1131.796,659.160 L1208.594,594.240 C1207.557,592.968 1207.068,591.295 1207.312,589.627 ZM1213.863,596.396 C1212.956,596.497 1212.011,596.390 1211.100,596.045 C1210.598,595.854 1210.135,595.603 1209.720,595.302 L1132.578,660.513 L1173.457,731.342 C1174.483,730.873 1175.689,730.799 1176.824,731.229 C1177.223,731.380 1177.588,731.585 1177.913,731.829 L1218.858,686.983 C1217.779,685.804 1217.386,684.078 1217.994,682.491 C1218.841,680.239 1221.354,679.102 1223.612,679.958 C1224.082,680.136 1224.503,680.387 1224.869,680.691 L1213.863,596.396 ZM1225.721,687.214 L1225.343,686.937 C1225.343,686.937 1225.348,686.931 1225.350,686.929 C1225.348,686.931 1225.345,686.934 1225.345,686.934 C1224.179,688.245 1222.278,688.782 1220.539,688.122 C1220.136,687.969 1219.769,687.764 1219.441,687.516 L1178.501,732.364 C1179.573,733.538 1179.963,735.255 1179.367,736.839 C1178.966,737.896 1178.206,738.705 1177.282,739.182 C1177.282,739.182 1177.278,739.183 1177.276,739.185 C1177.278,739.183 1177.280,739.183 1177.280,739.183 L1255.034,930.945 C1255.768,930.724 1256.563,930.694 1257.346,930.891 L1257.485,930.491 L1225.721,687.214 ZM1370.871,676.147 L1226.870,684.171 L1227.286,687.362 L1315.873,752.256 C1317.041,750.945 1318.940,750.418 1320.684,751.079 C1320.899,751.161 1321.105,751.257 1321.299,751.369 L1371.987,678.677 C1371.353,677.978 1370.959,677.086 1370.871,676.147 ZM1377.739,679.320 C1376.597,680.121 1375.095,680.361 1373.695,679.829 C1373.684,679.825 1373.673,679.822 1373.662,679.817 C1373.267,679.667 1372.906,679.466 1372.585,679.223 L1344.150,719.993 L1321.953,751.825 C1322.723,752.473 1323.241,753.367 1323.431,754.338 L1435.374,743.428 C1435.403,743.018 1435.492,742.606 1435.642,742.202 C1435.874,741.593 1436.229,741.064 1436.668,740.634 L1377.739,679.320 ZM1142.031,664.347 C1139.781,663.493 1138.642,660.981 1139.495,658.732 C1140.347,656.469 1142.856,655.342 1145.106,656.195 C1145.117,656.199 1145.127,656.203 1145.137,656.207 C1147.391,657.062 1148.506,659.575 1147.664,661.817 C1146.813,664.061 1144.295,665.206 1142.031,664.347 ZM1140.308,451.506 C1140.302,451.504 1140.295,451.501 1140.289,451.499 C1138.039,450.646 1136.914,448.133 1137.766,445.888 C1138.613,443.636 1141.134,442.502 1143.393,443.359 C1143.405,443.364 1143.416,443.368 1143.428,443.372 C1145.661,444.219 1146.783,446.737 1145.935,448.974 C1145.083,451.238 1142.567,452.363 1140.308,451.506 ZM1068.205,482.221 C1065.953,481.366 1064.807,478.853 1065.664,476.591 C1066.517,474.344 1069.033,473.204 1071.290,474.060 C1073.550,474.917 1074.680,477.424 1073.831,479.689 C1072.982,481.940 1070.465,483.078 1068.205,482.221 ZM1337.212,464.492 C1339.471,465.349 1340.606,467.872 1339.758,470.124 C1338.913,472.378 1336.395,473.501 1334.133,472.657 C1331.883,471.803 1330.737,469.288 1331.587,467.024 C1332.440,464.775 1334.962,463.639 1337.212,464.492 ZM978.653,494.305 C977.795,496.567 975.286,497.694 973.023,496.849 C970.779,495.998 969.627,493.482 970.485,491.221 C971.338,488.971 973.851,487.832 976.111,488.689 C978.362,489.543 979.500,492.054 978.653,494.305 ZM804.614,521.687 C804.603,521.683 804.593,521.679 804.581,521.675 C802.344,520.826 801.219,518.308 802.065,516.076 C802.919,513.825 805.434,512.680 807.687,513.535 C807.695,513.538 807.702,513.541 807.709,513.543 C809.963,514.398 811.097,516.915 810.246,519.158 C809.393,521.408 806.880,522.547 804.614,521.687 ZM842.289,444.107 C844.553,444.965 845.684,447.471 844.850,449.723 C843.997,451.970 841.481,453.117 839.216,452.258 C839.209,452.256 839.202,452.253 839.202,452.253 L839.196,452.251 C836.952,451.399 835.818,448.883 836.669,446.640 C837.523,444.390 840.036,443.252 842.289,444.107 ZM774.005,318.024 C773.998,318.021 773.991,318.018 773.984,318.016 C771.729,317.160 770.614,314.649 771.464,312.406 C772.300,310.151 774.831,309.019 777.085,309.874 C777.095,309.878 777.105,309.882 777.116,309.885 C779.348,310.732 780.475,313.250 779.628,315.483 C778.775,317.732 776.258,318.878 774.005,318.024 ZM722.637,271.233 C720.384,270.378 719.240,267.867 720.087,265.600 C720.940,263.352 723.467,262.211 725.721,263.066 C727.968,263.919 729.113,266.439 728.275,268.686 C727.417,270.947 724.889,272.087 722.637,271.233 ZM604.852,308.971 C602.588,308.112 601.444,305.587 602.294,303.348 C603.151,301.087 605.665,299.949 607.934,300.810 C610.181,301.662 611.312,304.169 610.473,306.438 C609.619,308.688 607.105,309.826 604.852,308.971 ZM451.278,715.730 C453.531,716.584 454.670,719.106 453.818,721.353 C452.962,723.609 450.450,724.744 448.197,723.889 C448.193,723.887 448.189,723.886 448.185,723.884 C445.926,723.028 444.793,720.512 445.646,718.263 C446.499,716.015 449.011,714.880 451.278,715.730 ZM166.777,587.626 C164.507,586.765 163.368,584.245 164.222,581.995 C165.074,579.748 167.600,578.611 169.855,579.460 C169.861,579.462 169.867,579.465 169.873,579.467 C172.118,580.318 173.247,582.833 172.394,585.081 C171.538,587.337 169.028,588.470 166.777,587.626 ZM592.190,1236.074 C593.046,1233.818 595.568,1232.686 597.832,1233.545 L597.841,1233.548 C600.081,1234.398 601.214,1236.913 600.363,1239.157 C599.507,1241.414 596.988,1242.554 594.743,1241.702 L594.734,1241.699 C592.476,1240.842 591.341,1238.329 592.190,1236.074 ZM723.633,1194.514 C723.633,1194.514 723.645,1194.518 723.650,1194.520 C725.894,1195.371 727.017,1197.892 726.167,1200.134 C725.324,1202.385 722.800,1203.522 720.551,1202.668 C718.292,1201.811 717.152,1199.301 718.004,1197.055 C718.854,1194.798 721.375,1193.657 723.633,1194.514 ZM863.018,1134.416 C860.758,1133.559 859.612,1131.045 860.464,1128.799 C861.319,1126.543 863.832,1125.407 866.093,1126.259 C868.352,1127.115 869.482,1129.624 868.644,1131.876 C867.789,1134.131 865.275,1135.272 863.018,1134.416 ZM1027.156,1054.850 C1029.408,1055.704 1030.551,1058.226 1029.700,1060.484 C1028.848,1062.730 1026.324,1063.869 1024.074,1063.015 C1024.069,1063.014 1024.064,1063.011 1024.060,1063.010 C1021.807,1062.155 1020.673,1059.639 1021.526,1057.390 C1022.382,1055.135 1024.894,1054.003 1027.156,1054.850 ZM1065.312,835.762 C1065.302,835.758 1065.291,835.755 1065.281,835.751 C1063.044,834.902 1061.920,832.384 1062.761,830.141 C1063.606,827.895 1066.131,826.753 1068.399,827.602 C1070.649,828.455 1071.791,830.981 1070.938,833.230 C1070.085,835.479 1067.570,836.618 1065.312,835.762 ZM795.553,692.578 C797.808,693.433 798.946,695.964 798.093,698.214 C797.247,700.459 794.725,701.601 792.472,700.747 C792.464,700.745 792.457,700.742 792.457,700.742 L792.450,700.740 C790.203,699.886 789.066,697.368 789.917,695.125 C790.774,692.864 793.290,691.740 795.553,692.578 ZM654.826,380.390 C654.826,380.390 654.840,380.396 654.848,380.399 C657.090,381.249 658.224,383.766 657.373,386.009 C656.532,388.261 654.000,389.395 651.752,388.543 C649.500,387.689 648.351,385.194 649.209,382.931 C650.046,380.677 652.577,379.538 654.826,380.390 ZM410.107,837.139 C410.111,837.140 410.115,837.142 410.115,837.142 C412.349,837.989 413.500,840.509 412.646,842.759 C411.790,845.016 409.279,846.152 407.012,845.298 C404.760,844.444 403.632,841.928 404.485,839.680 C405.327,837.420 407.839,836.288 410.107,837.139 ZM1046.039,954.192 C1045.185,956.444 1042.661,957.582 1040.397,956.723 C1038.153,955.872 1037.007,953.359 1037.863,951.103 C1038.714,948.859 1041.225,947.713 1043.483,948.570 C1043.483,948.570 1043.490,948.572 1043.493,948.573 C1045.747,949.428 1046.885,951.943 1046.039,954.192 ZM936.339,745.749 C938.600,746.606 939.736,749.114 938.892,751.366 C938.041,753.630 935.516,754.751 933.263,753.909 C931.003,753.052 929.869,750.531 930.715,748.277 C931.561,746.026 934.088,744.895 936.339,745.749 ZM682.130,634.797 C679.878,633.942 678.748,631.435 679.589,629.181 C680.447,626.920 682.962,625.775 685.214,626.629 C687.462,627.481 688.610,629.995 687.763,632.262 C686.910,634.510 684.383,635.651 682.130,634.797 ZM791.092,874.200 C791.097,874.202 791.103,874.205 791.108,874.206 C793.352,875.058 794.488,877.573 793.637,879.817 C792.787,882.075 790.264,883.213 788.014,882.360 C788.009,882.357 788.004,882.356 787.999,882.354 C785.749,881.500 784.618,878.986 785.464,876.735 C786.312,874.484 788.834,873.344 791.092,874.200 ZM742.874,796.242 C745.126,797.096 746.271,799.609 745.419,801.856 C744.568,804.113 742.041,805.243 739.791,804.397 C737.531,803.540 736.392,801.030 737.238,798.780 C738.093,796.524 740.614,795.385 742.874,796.242 ZM649.511,478.396 C647.259,477.542 646.112,475.027 646.969,472.767 C647.810,470.512 650.354,469.384 652.606,470.238 C654.852,471.090 656.001,473.604 655.148,475.854 C654.290,478.115 651.762,479.236 649.511,478.396 ZM850.499,1058.853 C848.246,1057.999 847.112,1055.483 847.957,1053.230 C848.811,1050.978 851.326,1049.836 853.579,1050.691 C855.837,1051.547 856.982,1054.059 856.126,1056.316 C855.280,1058.566 852.759,1059.703 850.499,1058.853 ZM527.460,927.559 C529.711,928.413 530.850,930.933 530.013,933.196 C529.161,935.441 526.631,936.573 524.381,935.728 C522.128,934.873 520.982,932.356 521.834,930.110 C522.693,927.847 525.210,926.714 527.460,927.559 ZM567.602,717.846 C569.867,718.705 570.997,721.212 570.145,723.460 C569.308,725.715 566.780,726.843 564.523,725.995 C564.523,725.995 564.516,725.992 564.512,725.991 C562.252,725.133 561.130,722.624 561.970,720.373 C562.824,718.121 565.346,716.995 567.602,717.846 ZM436.336,528.436 C436.347,528.441 436.357,528.445 436.368,528.449 C438.606,529.297 439.727,531.814 438.878,534.052 C438.045,536.304 435.507,537.453 433.241,536.594 C431.006,535.745 429.863,533.220 430.704,530.966 C431.558,528.716 434.084,527.582 436.336,528.436 ZM1244.057,793.922 C1241.808,793.069 1240.662,790.556 1241.509,788.304 C1242.363,786.053 1244.881,784.918 1247.135,785.773 C1247.142,785.775 1247.150,785.778 1247.158,785.781 C1249.396,786.631 1250.532,789.149 1249.683,791.390 C1248.839,793.643 1246.315,794.779 1244.057,793.922 ZM1368.738,403.221 C1366.478,402.363 1365.341,399.853 1366.186,397.599 C1367.043,395.339 1369.553,394.212 1371.806,395.067 C1371.814,395.070 1371.822,395.072 1371.830,395.075 C1374.084,395.930 1375.207,398.444 1374.363,400.690 C1373.510,402.940 1370.996,404.077 1368.738,403.221 ZM1144.772,269.901 C1142.515,269.045 1141.361,266.528 1142.214,264.279 C1143.072,262.018 1145.590,260.895 1147.856,261.733 C1150.108,262.587 1151.250,265.106 1150.392,267.368 C1149.550,269.614 1147.025,270.756 1144.772,269.901 ZM973.963,237.288 C971.693,236.427 970.557,233.918 971.410,231.668 C972.260,229.404 974.785,228.262 977.043,229.119 C979.295,229.973 980.425,232.487 979.573,234.750 C978.729,236.996 976.213,238.142 973.963,237.288 ZM899.598,191.568 C897.345,190.713 896.198,188.199 897.056,185.937 C897.909,183.689 900.429,182.553 902.674,183.405 C904.928,184.260 906.088,186.777 905.234,189.027 C904.376,191.289 901.850,192.408 899.598,191.568 ZM835.497,187.306 C833.243,186.451 832.101,183.939 832.959,181.678 C833.796,179.422 836.312,178.277 838.576,179.136 C840.829,179.990 841.958,182.504 841.107,184.749 C840.266,187.017 837.757,188.143 835.497,187.306 ZM782.214,53.867 C779.950,53.008 778.813,50.498 779.667,48.248 C780.512,45.982 783.040,44.862 785.292,45.696 C787.546,46.551 788.689,49.064 787.828,51.332 C786.995,53.582 784.461,54.719 782.214,53.867 ZM714.187,118.239 C711.940,117.387 710.809,114.864 711.655,112.599 C712.502,110.366 715.017,109.222 717.282,110.081 C717.282,110.081 717.296,110.086 717.303,110.089 C719.536,110.936 720.663,113.451 719.813,115.693 C718.970,117.948 716.455,119.085 714.187,118.239 ZM583.040,49.983 C583.030,49.980 583.020,49.976 583.009,49.972 C580.771,49.123 579.647,46.607 580.484,44.349 C581.330,42.118 583.851,40.960 586.117,41.819 C588.370,42.674 589.517,45.188 588.663,47.438 C587.805,49.699 585.292,50.838 583.040,49.983 ZM476.152,96.793 C476.141,96.789 476.129,96.784 476.118,96.780 C473.882,95.932 472.762,93.415 473.615,91.166 C474.468,88.916 476.977,87.789 479.229,88.631 C481.480,89.484 482.626,92.011 481.772,94.260 C480.919,96.510 478.405,97.648 476.152,96.793 ZM462.501,8.934 C460.249,8.080 459.109,5.562 459.967,3.300 C460.802,1.050 463.333,-0.088 465.587,0.767 C467.833,1.619 468.994,4.138 468.137,6.399 C467.283,8.649 464.757,9.790 462.501,8.934 ZM400.877,320.939 C400.870,320.936 400.863,320.933 400.856,320.931 C398.599,320.075 397.467,317.560 398.317,315.317 C399.164,313.085 401.684,311.929 403.948,312.788 C406.190,313.639 407.326,316.167 406.479,318.399 C405.637,320.653 403.112,321.787 400.877,320.939 ZM391.620,126.244 C389.366,125.389 388.213,122.887 389.071,120.626 C389.925,118.375 392.444,117.239 394.709,118.099 C394.718,118.102 394.725,118.105 394.725,118.105 C396.973,118.958 398.089,121.469 397.251,123.714 C396.398,125.964 393.871,127.098 391.620,126.244 ZM392.472,207.940 C394.719,208.792 395.866,211.306 395.015,213.550 C394.156,215.817 391.642,216.955 389.378,216.096 C387.125,215.242 385.977,212.729 386.835,210.467 C387.688,208.218 390.219,207.085 392.472,207.940 ZM344.718,46.672 C342.454,45.814 341.312,43.282 342.158,41.050 C343.016,38.789 345.531,37.650 347.794,38.508 C350.048,39.363 351.192,41.890 350.339,44.139 C349.488,46.383 346.971,47.527 344.718,46.672 ZM301.704,315.928 C299.451,315.074 298.321,312.566 299.178,310.305 C300.032,308.056 302.541,306.929 304.798,307.770 C307.061,308.629 308.193,311.137 307.335,313.399 C306.482,315.647 303.967,316.786 301.704,315.928 ZM283.094,430.526 C280.831,429.667 279.700,427.159 280.554,424.909 C281.393,422.662 283.912,421.505 286.178,422.365 C288.442,423.223 289.573,425.730 288.715,427.993 C287.862,430.240 285.348,431.381 283.094,430.526 ZM206.532,330.559 C204.280,329.705 203.131,327.190 203.989,324.930 C204.842,322.680 207.352,321.554 209.626,322.402 C211.874,323.255 213.001,325.775 212.147,328.025 C211.312,330.280 208.802,331.408 206.532,330.559 ZM172.919,456.679 C172.910,456.676 172.903,456.673 172.903,456.673 L172.895,456.670 C170.651,455.819 169.526,453.303 170.376,451.063 C171.229,448.814 173.744,447.674 175.997,448.528 C176.007,448.533 176.019,448.537 176.030,448.541 C178.279,449.394 179.387,451.907 178.534,454.158 C177.699,456.392 175.171,457.533 172.919,456.679 ZM99.576,978.057 C101.823,978.909 102.955,981.422 102.104,983.665 C101.269,985.922 98.740,987.049 96.488,986.194 C96.483,986.193 96.478,986.191 96.478,986.191 L96.473,986.189 C94.226,985.336 93.080,982.825 93.931,980.581 C94.786,978.326 97.298,977.193 99.562,978.052 L99.576,978.057 ZM94.162,1192.278 C93.307,1194.533 90.803,1195.680 88.527,1194.816 L88.518,1194.813 C86.281,1193.964 85.146,1191.447 85.999,1189.198 C86.853,1186.948 89.367,1185.806 91.620,1186.661 C91.620,1186.661 91.626,1186.663 91.630,1186.664 C93.890,1187.522 95.015,1190.030 94.162,1192.278 ZM56.342,1195.931 C54.089,1195.077 52.942,1192.563 53.796,1190.314 C54.641,1188.048 57.170,1186.921 59.420,1187.765 C59.423,1187.766 59.426,1187.767 59.426,1187.767 C61.678,1188.621 62.814,1191.134 61.974,1193.403 C61.122,1195.650 58.592,1196.779 56.342,1195.931 ZM3.426,916.475 C1.159,915.615 0.033,913.097 0.869,910.841 C1.721,908.595 4.238,907.446 6.505,908.298 C8.758,909.152 9.901,911.681 9.049,913.930 C8.196,916.179 5.690,917.334 3.426,916.475 ZM-19.841,984.093 C-22.105,983.234 -23.254,980.721 -22.398,978.466 C-21.546,976.220 -19.027,975.078 -16.762,975.937 C-14.508,976.792 -13.365,979.305 -14.222,981.562 C-15.077,983.817 -17.586,984.945 -19.841,984.093 ZM-61.017,1105.510 C-63.281,1104.651 -64.407,1102.134 -63.556,1099.888 C-62.712,1097.628 -60.198,1096.487 -57.933,1097.346 C-57.933,1097.346 -57.926,1097.348 -57.922,1097.350 C-55.680,1098.201 -54.539,1100.716 -55.393,1102.967 C-56.249,1105.223 -58.760,1106.356 -61.017,1105.510 ZM-65.915,1027.439 L-65.933,1027.433 C-68.190,1026.578 -69.320,1024.063 -68.467,1021.813 C-67.611,1019.558 -65.100,1018.424 -62.836,1019.283 L-62.821,1019.289 C-60.575,1020.141 -59.453,1022.651 -60.304,1024.894 C-61.159,1027.148 -63.661,1028.294 -65.915,1027.439 ZM124.279,798.732 C124.284,798.735 124.288,798.736 124.292,798.738 C126.520,799.583 127.658,802.108 126.810,804.343 C125.955,806.599 123.437,807.731 121.185,806.887 C118.933,806.033 117.794,803.512 118.647,801.263 C119.480,799.015 122.014,797.873 124.279,798.732 ZM156.653,1014.366 C158.935,1015.231 160.062,1017.747 159.210,1019.995 C158.357,1022.243 155.840,1023.391 153.570,1022.530 C153.567,1022.528 153.563,1022.527 153.559,1022.526 C151.328,1021.679 150.197,1019.158 151.048,1016.915 C151.883,1014.659 154.416,1013.523 156.653,1014.366 ZM340.535,1186.588 C342.790,1187.443 343.928,1189.964 343.076,1192.211 C342.221,1194.466 339.708,1195.602 337.457,1194.755 C335.206,1193.901 334.057,1191.387 334.915,1189.125 C335.757,1186.871 338.281,1185.739 340.535,1186.588 ZM631.418,1370.827 C631.418,1370.827 631.429,1370.831 631.435,1370.834 C633.677,1371.684 634.811,1374.199 633.968,1376.443 C633.115,1378.692 630.596,1379.821 628.349,1378.980 C626.083,1378.121 624.945,1375.610 625.798,1373.360 C626.645,1371.112 629.159,1369.970 631.418,1370.827 ZM754.053,1381.720 C756.302,1382.573 757.448,1385.086 756.597,1387.355 C755.744,1389.602 753.222,1390.740 750.972,1389.887 C750.972,1389.887 750.962,1389.883 750.956,1389.881 C748.706,1389.026 747.570,1386.511 748.424,1384.260 C749.270,1382.001 751.798,1380.875 754.053,1381.720 ZM830.999,1243.945 C833.251,1244.800 834.396,1247.314 833.547,1249.570 C832.699,1251.824 830.172,1252.960 827.912,1252.109 C825.659,1251.254 824.517,1248.732 825.369,1246.485 C826.219,1244.229 828.749,1243.092 830.999,1243.945 ZM925.528,1347.233 C927.777,1348.086 928.914,1350.607 928.065,1352.865 C927.218,1355.112 924.700,1356.248 922.439,1355.396 C920.179,1354.539 919.042,1352.030 919.891,1349.770 C920.746,1347.516 923.269,1346.376 925.528,1347.233 ZM940.197,1285.168 C942.449,1286.022 943.600,1288.545 942.745,1290.800 C941.891,1293.050 939.370,1294.190 937.115,1293.340 C934.864,1292.486 933.712,1289.964 934.560,1287.712 C935.418,1285.451 937.940,1284.318 940.197,1285.168 ZM994.380,1434.600 C996.632,1435.454 997.778,1437.967 996.928,1440.226 C996.077,1442.482 993.550,1443.613 991.298,1442.766 C989.049,1441.913 987.895,1439.396 988.744,1437.137 C989.600,1434.882 992.126,1433.751 994.380,1434.600 ZM994.580,1295.526 L994.569,1295.522 C992.315,1294.667 991.183,1292.154 992.031,1289.902 C992.885,1287.652 995.407,1286.506 997.661,1287.361 C999.916,1288.216 1001.053,1290.733 1000.198,1292.989 C999.344,1295.238 996.834,1296.372 994.580,1295.526 ZM1051.960,1410.223 L1051.973,1410.228 C1054.227,1411.083 1055.353,1413.594 1054.509,1415.849 C1053.653,1418.105 1051.136,1419.240 1048.872,1418.381 C1048.872,1418.381 1048.864,1418.378 1048.861,1418.376 C1046.617,1417.525 1045.488,1415.020 1046.336,1412.766 C1047.187,1410.508 1049.708,1409.369 1051.960,1410.223 ZM1083.208,1238.305 L1083.218,1238.308 C1085.471,1239.163 1086.594,1241.680 1085.750,1243.920 C1084.903,1246.180 1082.382,1247.309 1080.121,1246.460 C1077.871,1245.607 1076.729,1243.086 1077.579,1240.845 C1078.435,1238.589 1080.950,1237.458 1083.208,1238.305 ZM1096.016,1142.219 C1098.265,1143.072 1099.404,1145.586 1098.553,1147.851 C1097.708,1150.100 1095.181,1151.231 1092.928,1150.383 C1090.675,1149.529 1089.531,1147.016 1090.381,1144.758 C1091.236,1142.502 1093.762,1141.374 1096.016,1142.219 ZM1105.025,1336.792 C1107.274,1337.645 1108.427,1340.168 1107.572,1342.422 C1106.723,1344.675 1104.194,1345.810 1101.945,1344.956 C1101.942,1344.955 1101.937,1344.953 1101.937,1344.953 L1101.933,1344.952 C1099.680,1344.098 1098.547,1341.585 1099.399,1339.339 C1100.249,1337.082 1102.773,1335.944 1105.025,1336.792 ZM1124.488,1562.513 C1124.493,1562.515 1124.498,1562.516 1124.502,1562.518 C1126.749,1563.370 1127.875,1565.884 1127.035,1568.126 C1126.181,1570.378 1123.661,1571.505 1121.407,1570.661 L1121.393,1570.656 C1119.143,1569.802 1118.019,1567.293 1118.863,1565.045 C1119.709,1562.796 1122.224,1561.654 1124.488,1562.513 ZM1124.527,1151.713 C1122.274,1150.858 1121.133,1148.334 1121.985,1146.089 C1122.841,1143.832 1125.351,1142.688 1127.609,1143.544 C1129.868,1144.401 1131.004,1146.911 1130.157,1149.170 C1129.305,1151.417 1126.787,1152.557 1124.527,1151.713 ZM1140.123,1219.114 C1142.381,1219.970 1143.512,1222.479 1142.666,1224.736 C1141.813,1226.984 1139.296,1228.126 1137.046,1227.273 C1134.786,1226.416 1133.642,1223.900 1134.494,1221.654 C1135.350,1219.397 1137.864,1218.257 1140.123,1219.114 ZM1139.881,1080.680 C1140.734,1078.431 1143.249,1077.289 1145.508,1078.146 L1145.517,1078.149 C1147.762,1079.001 1148.910,1081.520 1148.056,1083.771 C1147.207,1086.022 1144.680,1087.161 1142.421,1086.309 C1140.168,1085.455 1139.025,1082.936 1139.881,1080.680 ZM1153.587,1117.840 C1153.587,1117.840 1153.594,1117.842 1153.598,1117.844 C1155.851,1118.698 1156.987,1121.223 1156.141,1123.477 C1155.289,1125.724 1152.774,1126.859 1150.501,1126.003 C1148.257,1125.151 1147.118,1122.641 1147.968,1120.384 C1148.823,1118.128 1151.335,1116.995 1153.587,1117.840 ZM1214.228,1378.022 C1216.481,1378.877 1217.623,1381.400 1216.768,1383.655 C1215.926,1385.906 1213.401,1387.045 1211.147,1386.190 C1208.887,1385.336 1207.736,1382.816 1208.589,1380.567 C1209.447,1378.305 1211.973,1377.167 1214.228,1378.022 ZM1230.471,1152.982 C1232.724,1153.837 1233.852,1156.349 1233.004,1158.602 C1232.149,1160.858 1229.638,1161.989 1227.394,1161.138 C1227.394,1161.138 1227.382,1161.134 1227.376,1161.131 C1225.120,1160.276 1223.991,1157.762 1224.840,1155.511 C1225.691,1153.265 1228.205,1152.123 1230.471,1152.982 ZM1254.237,1228.523 C1256.488,1229.376 1257.634,1231.891 1256.784,1234.148 C1255.928,1236.403 1253.407,1237.542 1251.154,1236.688 C1248.899,1235.832 1247.754,1233.320 1248.610,1231.064 C1249.465,1228.809 1251.973,1227.664 1254.237,1228.523 ZM1288.173,1102.258 C1290.432,1103.115 1291.579,1105.640 1290.724,1107.895 C1289.879,1110.146 1287.350,1111.283 1285.091,1110.426 L1285.080,1110.421 C1282.842,1109.571 1281.696,1107.056 1282.548,1104.808 C1283.398,1102.544 1285.923,1101.417 1288.173,1102.258 ZM1355.870,936.148 C1358.123,937.002 1359.261,939.513 1358.414,941.765 C1357.562,944.028 1355.038,945.149 1352.789,944.296 C1352.777,944.293 1352.766,944.289 1352.755,944.285 C1350.513,943.433 1349.394,940.917 1350.238,938.678 C1351.089,936.433 1353.605,935.289 1355.870,936.148 Z" class="cls-1"/>
</svg>
